<svg width="178" height="28" viewBox="0 0 178 28" fill="none" xmlns="http://www.w3.org/2000/svg"><path d="M21.7227 18.4844h-6.1641L14.3867 22h-3.7383L17 4.9375h3.2578L26.6445 22h-3.7383l-1.1835-3.5156zm-5.2149-2.8477h4.2656L18.6289 9.25l-2.1211 6.3867zM35.3633 22c-.1563-.3047-.2695-.6836-.3399-1.1367-.8203.914-1.8867 1.3711-3.1992 1.3711-1.2422 0-2.2734-.3594-3.0937-1.0782-.8125-.7187-1.2188-1.625-1.2188-2.7187 0-1.3437.4961-2.375 1.4883-3.0937 1-.7188 2.4414-1.0821 4.3242-1.0899h1.5586v-.7266c0-.5859-.1523-1.0546-.457-1.4062-.2969-.3516-.7696-.5273-1.418-.5273-.5703 0-1.0195.1367-1.3476.4101-.3204.2734-.4805.6484-.4805 1.125H27.793c0-.7344.2265-1.4141.6797-2.0391.4531-.625 1.0937-1.11324 1.9218-1.4648.8282-.35938 1.7578-.53906 2.7891-.53906 1.5625 0 2.8008.39453 3.7148 1.18356.9219.7813 1.3828 1.8828 1.3828 3.3047v5.4961c.0079 1.2031.1758 2.1133.504 2.7305V22h-3.4219zm-2.8008-2.3555c.5 0 .9609-.1093 1.3828-.3281.4219-.2266.7344-.5273.9375-.9023v-2.1797h-1.2656c-1.6953 0-2.5977.5859-2.707 1.7578l-.0118.1992c0 .4219.1485.7695.4454 1.043.2968.2734.7031.4101 1.2187.4101zm12.8672-2.4375l2.3437-7.88669h3.6328L46.3086 23.9688l-.2813.6679c-.7578 1.6563-2.0078 2.4844-3.75 2.4844-.4921 0-.9921-.0742-1.5-.2227V24.332l.5157.0118c.6406 0 1.1172-.0977 1.4297-.293.3203-.1953.5703-.5196.75-.9727l.3984-1.0429-4.4414-12.71489h3.6445l2.3555 7.88669zm14.9062 3.5039c-.8359 1.0157-1.9921 1.5235-3.4687 1.5235-1.3594 0-2.3984-.3906-3.1172-1.1719-.7109-.7813-1.0742-1.9258-1.0898-3.4336V9.32031h3.3867v8.19139c0 1.3203.6015 1.9805 1.8047 1.9805 1.1484 0 1.9375-.3984 2.3672-1.1953V9.32031h3.3984V22h-3.1875l-.0938-1.2891zm12.7032-2.2148c0-.4141-.2071-.7383-.6211-.9727-.4063-.2422-1.0625-.457-1.9688-.6445-3.0156-.6328-4.5234-1.9141-4.5234-3.8437 0-1.125.4648-2.0625 1.3945-2.8125.9375-.75786 2.1602-1.13676 3.668-1.13676 1.6094 0 2.8945.3789 3.8555 1.13676.9687.7578 1.4531 1.7421 1.4531 2.9531h-3.3867c0-.4844-.1563-.8828-.4688-1.1953-.3125-.3203-.8008-.4805-1.4648-.4805-.5704 0-1.0118.1289-1.3243.3867-.3125.2578-.4687.586-.4687.9844 0 .375.1758.6797.5273.9141.3594.2265.961.4257 1.8047.5976.8438.1641 1.5547.3516 2.1328.5625 1.7891.6563 2.6836 1.793 2.6836 3.4102 0 1.1562-.4961 2.0937-1.4882 2.8125-.9922.7109-2.2735 1.0664-3.8438 1.0664-1.0625 0-2.0078-.1875-2.8359-.5625-.8203-.3828-1.4649-.9024-1.9336-1.5586-.4688-.6641-.7032-1.3789-.7032-2.1445h3.211c.0312.6015.2539 1.0624.6679 1.3828.4141.3203.9688.4804 1.6641.4804.6485 0 1.1367-.1211 1.4649-.3632.3359-.25.5039-.5743.5039-.9727zm8.789-7.793c.8985-1.0781 2.0274-1.61716 3.3867-1.61716 2.75 0 4.1446 1.59766 4.1836 4.79296V22h-3.3867v-8.0273c0-.7266-.1562-1.2618-.4687-1.6055-.3125-.3516-.8321-.5274-1.5586-.5274-.9922 0-1.711.3829-2.1563 1.1485V22h-3.3867V4h3.3867v6.7031zm21.6679 4.4531l-1.828 1.9688V22h-3.5157V4.9375h3.5157v7.7344l1.547-2.1211 4.347-5.6133h4.325l-6.059 7.582L112.062 22h-4.183l-4.383-6.8438zm16.981 5.5547c-.836 1.0157-1.993 1.5235-3.469 1.5235-1.36 0-2.399-.3906-3.117-1.1719-.711-.7813-1.075-1.9258-1.09-3.4336V9.32031h3.387v8.19139c0 1.3203.601 1.9805 1.804 1.9805 1.149 0 1.938-.3984 2.367-1.1953V9.32031h3.399V22h-3.188l-.093-1.2891zm9.011-11.39059l.106 1.41799c.898-1.10158 2.113-1.65236 3.644-1.65236 1.633 0 2.754.64453 3.364 1.93356.89-1.28903 2.16-1.93356 3.808-1.93356 1.375 0 2.399.40234 3.07 1.20706.672.7968 1.008 2 1.008 3.6093V22h-3.398v-8.0859c0-.7188-.141-1.2422-.422-1.5703-.281-.336-.777-.504-1.488-.504-1.016 0-1.719.4844-2.11 1.4532l.012 8.707h-3.387v-8.0742c0-.7344-.144-1.2656-.433-1.5938-.289-.3281-.782-.4922-1.477-.4922-.961 0-1.656.3985-2.086 1.1954V22h-3.387V9.32031h3.176zM154.449 22c-.156-.3047-.269-.6836-.34-1.1367-.82.914-1.886 1.3711-3.199 1.3711-1.242 0-2.273-.3594-3.094-1.0782-.812-.7187-1.218-1.625-1.218-2.7187 0-1.3437.496-2.375 1.488-3.0937 1-.7188 2.441-1.0821 4.324-1.0899h1.559v-.7266c0-.5859-.153-1.0546-.457-1.4062-.297-.3516-.77-.5273-1.418-.5273-.571 0-1.02.1367-1.348.4101-.32.2734-.48.6484-.48 1.125h-3.387c0-.7344.226-1.4141.68-2.0391.453-.625 1.093-1.11324 1.921-1.4648.829-.35938 1.758-.53906 2.79-.53906 1.562 0 2.8.39453 3.714 1.18356.922.7813 1.383 1.8828 1.383 3.3047v5.4961c.008 1.2031.176 2.1133.504 2.7305V22h-3.422zm-2.801-2.3555c.5 0 .961-.1093 1.383-.3281.422-.2266.735-.5273.938-.9023v-2.1797h-1.266c-1.695 0-2.598.5859-2.707 1.7578l-.012.1992c0 .4219.149.7695.446 1.043.297.2734.703.4101 1.218.4101zm15.446-7.1484c-.461-.0625-.867-.0938-1.219-.0938-1.281 0-2.121.4336-2.52 1.3008V22h-3.386V9.32031h3.199l.094 1.51169c.679-1.16403 1.621-1.74606 2.824-1.74606.375 0 .726.05078 1.055.15234l-.047 3.25782z" fill="#fff"/></svg>