<svg width="211" height="45" viewBox="0 0 211 45" fill="none" xmlns="http://www.w3.org/2000/svg"><path d="M44.9434 26.3203H34.2207L31.8125 33H28.332l9.7735-25.59375h2.9531L50.8496 33h-3.4629l-2.4433-6.6797zm-9.7032-2.7773h8.7012L39.582 11.5723 35.2402 23.543zm34.6465.1582c0 2.9062-.6679 5.2441-2.0039 7.0136-1.3359 1.7579-3.1289 2.6368-5.3789 2.6368-2.4023 0-4.2598-.8496-5.5723-2.5489L56.7734 33h-2.9882V6h3.2519v10.0723c1.3125-1.6289 3.1231-2.4434 5.4317-2.4434 2.3085 0 4.1191.8731 5.4316 2.6191 1.3242 1.7461 1.9863 4.1368 1.9863 7.1719v.2813zm-3.2519-.3692c0-2.2148-.4278-3.9258-1.2832-5.1328-.8555-1.207-2.086-1.8105-3.6914-1.8105-2.1446 0-3.6856.9961-4.6231 2.9883v8.2265c.9961 1.9922 2.5488 2.9883 4.6582 2.9883 1.5586 0 2.7715-.6035 3.6387-1.8106.8672-1.207 1.3008-3.0234 1.3008-5.4492zm6.5039-.0175c0-1.8633.3633-3.5391 1.0898-5.0274.7383-1.4883 1.7578-2.6367 3.0586-3.4453 1.3125-.8086 2.8067-1.2129 4.4824-1.2129 2.5899 0 4.6817.8965 6.2754 2.6895 1.6055 1.7929 2.4082 4.1777 2.4082 7.1543v.2285c0 1.8515-.3574 3.5156-1.0722 4.9922-.7032 1.4648-1.7168 2.6074-3.0411 3.4277-1.3125.8203-2.8242 1.2305-4.5351 1.2305-2.5781 0-4.6699-.8965-6.2754-2.6895-1.5938-1.793-2.3906-4.166-2.3906-7.1191v-.2285zm3.2695.3867c0 2.1093.4863 3.8027 1.459 5.08.9844 1.2774 2.2969 1.9161 3.9375 1.9161 1.6523 0 2.9648-.6446 3.9375-1.9336.9726-1.3008 1.459-3.1172 1.459-5.4492 0-2.086-.4981-3.7735-1.4942-5.0625-.9843-1.3008-2.2968-1.9512-3.9375-1.9512-1.6054 0-2.9004.6387-3.8847 1.916-.9844 1.2773-1.4766 3.1055-1.4766 5.4844zm29.8648 7.4179c-1.265 1.4883-3.123 2.2325-5.572 2.2325-2.0272 0-3.574-.586-4.6405-1.7578-1.0546-1.1836-1.5878-2.9297-1.5996-5.2383v-12.375h3.252v12.2871c0 2.8828 1.1719 4.3242 3.5161 4.3242 2.484 0 4.136-.9258 4.957-2.7773v-13.834h3.252V33h-3.094l-.071-1.8809zM118.807 9.375v4.6055h3.55v2.5136h-3.55v11.795c0 .7617.158 1.3359.474 1.7226.317.375.856.5625 1.617.5625.375 0 .891-.0703 1.547-.2109V33c-.855.2344-1.687.3516-2.496.3516-1.453 0-2.549-.4395-3.287-1.3184s-1.107-2.127-1.107-3.7441v-11.795h-3.463v-2.5136h3.463V9.375h3.252zm21.164-1.96875l8.367 20.88285 8.367-20.88285h4.377V33h-3.375v-9.9668l.316-10.7578L149.621 33h-2.584l-8.385-20.6719.334 10.7051V33h-3.375V7.40625h4.36zm34.453 25.94535c-2.578 0-4.676-.8438-6.293-2.5313-1.617-1.6992-2.426-3.9668-2.426-6.8027v-.5977c0-1.8867.357-3.5683 1.072-5.0449.727-1.4883 1.735-2.6484 3.024-3.4805 1.301-.8437 2.707-1.2656 4.219-1.2656 2.472 0 4.394.8145 5.765 2.4434 1.371 1.6289 2.057 3.9609 2.057 6.9961v1.3535h-12.885c.047 1.875.592 3.3926 1.635 4.5527 1.054 1.1484 2.39 1.7227 4.008 1.7227 1.148 0 2.121-.2344 2.918-.7032.796-.4687 1.494-1.0898 2.091-1.8632l1.987 1.5468c-1.594 2.4493-3.985 3.6739-7.172 3.6739zm-.404-17.0508c-1.313 0-2.415.4804-3.305 1.4414-.891.9492-1.442 2.2851-1.653 4.0078h9.528v-.2461c-.094-1.6523-.539-2.9297-1.336-3.832-.797-.9141-1.875-1.3711-3.234-1.3711z" fill="#000"/></svg>