<svg width="254" height="63" viewBox="0 0 254 63" fill="none" xmlns="http://www.w3.org/2000/svg"><path d="M45.25 16.3164c-.1328 1.8359-.8125 3.2813-2.0391 4.3359-1.2187 1.0547-2.8281 1.5821-4.8281 1.5821-2.1875 0-3.9101-.7344-5.168-2.2032-1.25-1.4765-1.875-3.5-1.875-6.0703V12.918c0-1.6407.2891-3.08597.8672-4.33597.5782-1.25 1.4024-2.20703 2.4727-2.87109 1.0781-.67188 2.3281-1.00782 3.75-1.00782 1.9687 0 3.5547.52735 4.7578 1.58204 1.2031 1.05468 1.8984 2.53515 2.0859 4.44144h-3.5156c-.0859-1.1016-.3945-1.89848-.9258-2.39066-.5234-.5-1.3242-.75-2.4023-.75-1.1719 0-2.0508.42187-2.6367 1.26562-.5782.83594-.875 2.13674-.8907 3.90234v1.2891c0 1.8437.2774 3.1914.8321 4.0429.5625.8516 1.4453 1.2774 2.6484 1.2774 1.086 0 1.8945-.2461 2.4258-.7383.5391-.5.8476-1.2695.9258-2.3086H45.25zM50.9102 22h-3.3985V4h3.3985v18zm2.2734-6.457c0-1.2578.2422-2.3789.7266-3.3633.4843-.9844 1.1796-1.7461 2.0859-2.28517.9141-.53906 1.9727-.80859 3.1758-.80859 1.7109 0 3.1054.52344 4.1836 1.57026 1.0859 1.0469 1.6914 2.4688 1.8164 4.2657l.0234.8672c0 1.9453-.543 3.5078-1.6289 4.6875-1.0859 1.1718-2.543 1.7578-4.3711 1.7578s-3.2891-.586-4.3828-1.7578c-1.0859-1.1719-1.6289-2.7657-1.6289-4.7813v-.1523zm3.3867.2461c0 1.2031.2266 2.125.6797 2.7656.4531.6328 1.1016.9492 1.9453.9492.8203 0 1.4609-.3125 1.9219-.9375.4609-.6328.6914-1.6406.6914-3.0234 0-1.1797-.2305-2.0938-.6914-2.7422-.461-.6485-1.1094-.9727-1.9453-.9727-.8281 0-1.4688.3242-1.9219.9727-.4531.6406-.6797 1.6367-.6797 2.9883zm18.3047 4.9218c-.8359 1.0157-1.9922 1.5235-3.4688 1.5235-1.3593 0-2.3984-.3906-3.1171-1.1719-.711-.7813-1.0743-1.9258-1.0899-3.4336V9.32031h3.3867v8.19139c0 1.3203.6016 1.9805 1.8047 1.9805 1.1485 0 1.9375-.3984 2.3672-1.1953V9.32031h3.3984V22h-3.1874l-.0938-1.2891zm5.3086-5.1445c0-1.9766.4414-3.5508 1.3242-4.7226.8906-1.17192 2.1055-1.75786 3.6445-1.75786 1.2344 0 2.2539.46094 3.0586 1.38286V4h3.3985v18h-3.0586l-.1641-1.3477c-.8437 1.0547-1.9297 1.5821-3.2578 1.5821-1.4922 0-2.6914-.586-3.5977-1.7578-.8984-1.1797-1.3476-2.8164-1.3476-4.9102zm3.3867.2461c0 1.1875.207 2.0977.6211 2.7305s1.0156.9492 1.8047.9492c1.0469 0 1.7851-.4414 2.2148-1.3242v-5.0039c-.4218-.8829-1.1523-1.3243-2.1914-1.3243-1.6328 0-2.4492 1.3243-2.4492 3.9727zm29.0037-8.02734h-5.226V22h-3.516V7.78516h-5.1562V4.9375h13.8982v2.84766zm6.574 14.44924c-1.859 0-3.375-.5703-4.546-1.711-1.164-1.1406-1.747-2.6601-1.747-4.5586v-.3281c0-1.2734.247-2.4101.739-3.4101.492-1.0078 1.187-1.7813 2.086-2.32035.906-.54687 1.937-.82031 3.093-.82031 1.735 0 3.098.54687 4.09 1.64066 1 1.0937 1.5 2.6445 1.5 4.6523v1.3828h-8.074c.109.8281.438 1.4922.984 1.9922.555.5 1.254.75 2.098.75 1.305 0 2.324-.4727 3.059-1.418l1.664 1.8633c-.508.7188-1.196 1.2813-2.063 1.6875-.867.3985-1.828.5977-2.883.5977zm-.386-10.4063c-.672 0-1.219.2266-1.641.6797-.414.4531-.68 1.1016-.797 1.9453h4.711v-.2695c-.015-.75-.219-1.3281-.609-1.7344-.391-.414-.946-.6211-1.664-.6211zm12.808 7.6758c.625 0 1.133-.1719 1.524-.5156.39-.3438.594-.8008.609-1.3711h3.176c-.008.8594-.242 1.6484-.703 2.3672-.461.7109-1.094 1.2656-1.899 1.664-.797.3907-1.679.586-2.648.586-1.813 0-3.242-.5742-4.289-1.7227-1.047-1.1562-1.57-2.75-1.57-4.7812v-.2227c0-1.9531.519-3.5117 1.558-4.6758 1.039-1.16403 2.465-1.74606 4.277-1.74606 1.586 0 2.856.45312 3.809 1.35936.961.8985 1.449 2.0977 1.465 3.5977h-3.176c-.015-.6563-.219-1.1875-.609-1.5938-.391-.414-.906-.6211-1.547-.6211-.789 0-1.387.2891-1.793.8672-.399.5703-.598 1.5-.598 2.7891v.3515c0 1.3047.199 2.2422.598 2.8125.398.5704 1.004.8555 1.816.8555zm10.547-8.8008c.899-1.0781 2.028-1.61716 3.387-1.61716 2.75 0 4.144 1.59766 4.184 4.79296V22h-3.387v-8.0273c0-.7266-.156-1.2618-.469-1.6055-.312-.3516-.832-.5274-1.559-.5274-.992 0-1.711.3829-2.156 1.1485V22h-3.387V4h3.387v6.7031zm13.242-1.38279l.106 1.46489c.906-1.13286 2.121-1.69926 3.644-1.69926 1.344 0 2.344.39453 3 1.18356.657.7891.993 1.9688 1.008 3.5391V22h-3.387v-8.1094c0-.7187-.156-1.2383-.468-1.5586-.313-.3281-.832-.4922-1.559-.4922-.953 0-1.668.4063-2.144 1.2188V22h-3.387V9.32031h3.187zm9.809 6.22269c0-1.2578.242-2.3789.727-3.3633.484-.9844 1.179-1.7461 2.085-2.28517.915-.53906 1.973-.80859 3.176-.80859 1.711 0 3.106.52344 4.184 1.57026 1.086 1.0469 1.691 2.4688 1.816 4.2657l.024.8672c0 1.9453-.543 3.5078-1.629 4.6875-1.086 1.1718-2.543 1.7578-4.371 1.7578-1.828 0-3.289-.586-4.383-1.7578-1.086-1.1719-1.629-2.7657-1.629-4.7813v-.1523zm3.387.2461c0 1.2031.226 2.125.679 2.7656.454.6328 1.102.9492 1.946.9492.82 0 1.461-.3125 1.922-.9375.46-.6328.691-1.6406.691-3.0234 0-1.1797-.231-2.0938-.691-2.7422-.461-.6485-1.11-.9727-1.946-.9727-.828 0-1.468.3242-1.922.9727-.453.6406-.679 1.6367-.679 2.9883zM182.84 22h-3.399V4h3.399v18zm2.273-6.457c0-1.2578.242-2.3789.727-3.3633.484-.9844 1.18-1.7461 2.086-2.28517.914-.53906 1.972-.80859 3.176-.80859 1.71 0 3.105.52344 4.183 1.57026 1.086 1.0469 1.692 2.4688 1.817 4.2657l.023.8672c0 1.9453-.543 3.5078-1.629 4.6875-1.086 1.1718-2.543 1.7578-4.371 1.7578-1.828 0-3.289-.586-4.383-1.7578-1.086-1.1719-1.629-2.7657-1.629-4.7813v-.1523zm3.387.2461c0 1.2031.227 2.125.68 2.7656.453.6328 1.101.9492 1.945.9492.82 0 1.461-.3125 1.922-.9375.461-.6328.691-1.6406.691-3.0234 0-1.1797-.23-2.0938-.691-2.7422-.461-.6485-1.109-.9727-1.945-.9727-.829 0-1.469.3242-1.922.9727-.453.6406-.68 1.6367-.68 2.9883zm10.219-.2227c0-1.9453.461-3.5117 1.383-4.6992.929-1.18751 2.179-1.78126 3.75-1.78126 1.39 0 2.472.47656 3.246 1.42966l.14-1.19529h3.071V21.5781c0 1.1094-.254 2.0742-.762 2.8946-.5.8203-1.207 1.4453-2.121 1.875-.914.4296-1.985.6445-3.211.6445-.93 0-1.836-.1875-2.719-.5625-.883-.3672-1.551-.8438-2.004-1.4297l1.5-2.0625c.844.9453 1.867 1.418 3.07 1.418.899 0 1.598-.2422 2.098-.7266.5-.4766.75-1.1562.75-2.0391v-.6796c-.781.8828-1.808 1.3242-3.082 1.3242-1.523 0-2.758-.5938-3.703-1.7813-.937-1.1953-1.406-2.7773-1.406-4.7461v-.1406zm3.386.2461c0 1.1484.231 2.0508.692 2.707.461.6485 1.094.9727 1.898.9727 1.032 0 1.77-.3867 2.215-1.1602V13c-.453-.7734-1.183-1.1602-2.191-1.1602-.813 0-1.453.3321-1.922.9961-.461.6641-.692 1.6563-.692 2.9766zm15.551 1.3945L220 9.32031h3.633l-5.098 14.64849-.281.6679c-.758 1.6563-2.008 2.4844-3.75 2.4844-.492 0-.992-.0742-1.5-.2227V24.332l.516.0118c.64 0 1.117-.0977 1.429-.293.321-.1953.571-.5196.75-.9727l.399-1.0429-4.442-12.71489h3.645l2.355 7.88669z" fill="#fff"/></svg>