<svg width="102" height="33" viewBox="0 0 102 33" fill="none" xmlns="http://www.w3.org/2000/svg"><path d="M23.5898 16.5859c-.2109 1.8047-.8789 3.1993-2.0039 4.1836-1.1171.9766-2.6054 1.4649-4.4648 1.4649-2.0156 0-3.6328-.7227-4.8516-2.168-1.2109-1.4453-1.8164-3.3789-1.8164-5.8008V12.625c0-1.5859.2813-2.98047.8438-4.18359.5703-1.20313 1.375-2.125 2.414-2.76563 1.0391-.64844 2.2422-.97266 3.6094-.97266 1.8125 0 3.2656.50782 4.3594 1.52344 1.0937 1.00782 1.7305 2.40625 1.9101 4.19534h-2.2617c-.1953-1.3594-.6211-2.34378-1.2773-2.95315-.6485-.60937-1.5586-.91406-2.7305-.91406-1.4375 0-2.5664.53125-3.3867 1.59375-.8125 1.0625-1.2188 2.57426-1.2188 4.53516v1.6523c0 1.8516.3868 3.3243 1.1602 4.418.7734 1.0938 1.8555 1.6406 3.2461 1.6406 1.25 0 2.207-.2812 2.8711-.8437.6719-.5703 1.1172-1.5586 1.3359-2.9649h2.2617zm2.168-1.0429c0-1.2422.2422-2.3594.7266-3.3516.4922-.9922 1.1718-1.7578 2.039-2.29687.875-.53906 1.8711-.80859 2.9883-.80859 1.7266 0 3.1211.59765 4.1836 1.79296 1.0703 1.1953 1.6055 2.7852 1.6055 4.7695v.1524c0 1.2344-.2383 2.3437-.7149 3.3281-.4687.9766-1.1445 1.7383-2.0273 2.2852-.875.5468-1.8828.8203-3.0234.8203-1.7188 0-3.1133-.5977-4.1836-1.793-1.0625-1.1953-1.5938-2.7773-1.5938-4.7461v-.1523zm2.1797.2578c0 1.4062.3242 2.5351.9727 3.3867.6562.8516 1.5312 1.2773 2.625 1.2773 1.1015 0 1.9765-.4296 2.625-1.289.6484-.8672.9726-2.0781.9726-3.6328 0-1.3907-.332-2.5157-.9961-3.375-.6562-.8672-1.5312-1.3008-2.625-1.3008-1.0703 0-1.9336.4258-2.5898 1.2773-.6563.8516-.9844 2.0703-.9844 3.6563zm14.1328-6.48049l.0703 1.59379c.9688-1.21879 2.2344-1.82816 3.7969-1.82816 2.6797 0 4.0313 1.51176 4.0547 4.53516V22h-2.168v-8.3906c-.0078-.9141-.2187-1.5899-.6328-2.0274-.4062-.4375-1.043-.6562-1.9102-.6562-.7031 0-1.3203.1875-1.8515.5625-.5313.375-.9453.8672-1.2422 1.4765V22h-2.168V9.32031h2.0508zM56.2031 6.25v3.07031h2.3672v1.67579h-2.3672v7.8633c0 .5078.1055.8906.3164 1.1484.211.25.5703.375 1.0782.375.25 0 .5937-.0469 1.0312-.1406V22c-.5703.1562-1.125.2344-1.6641.2344-.9687 0-1.6992-.293-2.1914-.8789-.4922-.586-.7382-1.418-.7382-2.4961v-7.8633h-2.3086V9.32031h2.3086V6.25h2.1679zM68.9414 22c-.125-.25-.2266-.6953-.3047-1.3359-1.0078 1.0468-2.2109 1.5703-3.6094 1.5703-1.25 0-2.2773-.3516-3.082-1.0547-.7969-.7109-1.1953-1.6094-1.1953-2.6953 0-1.3203.5-2.3438 1.5-3.0703 1.0078-.7344 2.4219-1.1016 4.2422-1.1016h2.1094v-.9961c0-.7578-.2266-1.3594-.6797-1.8047-.4531-.4531-1.1211-.6797-2.0039-.6797-.7735 0-1.4219.1953-1.9453.586-.5235.3906-.7852.8632-.7852 1.4179h-2.1797c0-.6328.2227-1.2421.668-1.8281.4531-.5937 1.0625-1.06249 1.8281-1.40624.7734-.34375 1.6211-.51562 2.543-.51562 1.4609 0 2.6054.36718 3.4336 1.10156.8281.7266 1.2578 1.7305 1.289 3.0117v5.836c0 1.164.1485 2.0898.4453 2.7773V22h-2.2734zm-3.5976-1.6523c.6796 0 1.3242-.1758 1.9335-.5274.6094-.3515 1.0508-.8086 1.3243-1.3711v-2.6015h-1.6993c-2.6562 0-3.9843.7773-3.9843 2.332 0 .6797.2265 1.2109.6797 1.5937.4531.3828 1.0351.5743 1.7461.5743zm13.9101.1171c.7734 0 1.4492-.2343 2.0273-.7031.5782-.4687.8985-1.0547.961-1.7578h2.0508c-.0391.7266-.2891 1.418-.75 2.0742-.461.6563-1.0782 1.1797-1.8516 1.5703-.7656.3907-1.5781.586-2.4375.586-1.7266 0-3.1016-.5742-4.125-1.7227-1.0156-1.1562-1.5234-2.7344-1.5234-4.7344v-.3632c0-1.2344.2265-2.3321.6797-3.293.4531-.9609 1.1015-1.707 1.9453-2.23829.8515-.53125 1.8554-.79687 3.0117-.79687 1.4219 0 2.6016.42578 3.539 1.27736.9454.8515 1.4493 1.957 1.5118 3.3164h-2.0508c-.0625-.8203-.375-1.4922-.9375-2.0156-.5547-.5313-1.2422-.7969-2.0625-.7969-1.1016 0-1.957.3984-2.5664 1.1953-.6016.7891-.9024 1.9336-.9024 3.4336v.4101c0 1.461.3008 2.586.9024 3.375.6015.7891 1.4609 1.1836 2.5781 1.1836zM89.6719 6.25v3.07031h2.3672v1.67579h-2.3672v7.8633c0 .5078.1054.8906.3164 1.1484.2109.25.5703.375 1.0781.375.25 0 .5938-.0469 1.0313-.1406V22c-.5704.1562-1.125.2344-1.6641.2344-.9688 0-1.6992-.293-2.1914-.8789-.4922-.586-.7383-1.418-.7383-2.4961v-7.8633h-2.3086V9.32031h2.3086V6.25h2.168z" fill="#fff"/></svg>