<svg width="544" height="41" viewBox="0 0 544 41" fill="none" xmlns="http://www.w3.org/2000/svg"><path d="M152.363 12.9395c-.158 1.3535-.659 2.3994-1.503 3.1376-.838.7325-1.954 1.0987-3.348 1.0987-1.512 0-2.725-.542-3.639-1.626-.908-1.084-1.362-2.5342-1.362-4.3506V9.96875c0-1.18945.211-2.23535.633-3.1377.427-.90234 1.031-1.59375 1.81-2.07421.779-.48633 1.682-.7295 2.707-.7295 1.36 0 2.449.38086 3.27 1.14258.82.75586 1.298 1.80469 1.432 3.14649h-1.696c-.146-1.01953-.466-1.75782-.958-2.21485-.486-.45703-1.169-.68554-2.048-.68554-1.078 0-1.925.39843-2.54 1.19531-.609.79687-.914 1.93066-.914 3.40137v1.2393c0 1.3886.29 2.4931.87 3.3134.58.8203 1.392 1.2305 2.435 1.2305.937 0 1.655-.2109 2.153-.6328.504-.4277.838-1.169 1.002-2.2236h1.696zm1.626-.7823c0-.9316.182-1.7695.545-2.51365.369-.74414.879-1.31835 1.529-1.72265.657-.4043 1.404-.60645 2.242-.60645 1.295 0 2.341.44825 3.137 1.34473.803.89648 1.204 2.08882 1.204 3.57712v.1143c0 .9258-.178 1.7578-.536 2.4961-.351.7324-.858 1.3037-1.52 1.7138-.656.4102-1.412.6153-2.268.6153-1.289 0-2.335-.4483-3.137-1.3447-.797-.8965-1.196-2.0831-1.196-3.5596v-.1143zm1.635.1934c0 1.0547.243 1.9014.73 2.54.492.6387 1.148.958 1.968.958.826 0 1.483-.3222 1.969-.9668.486-.6504.73-1.5586.73-2.7246 0-1.0429-.25-1.8867-.748-2.53122-.492-.65039-1.148-.97559-1.968-.97559-.803 0-1.451.31934-1.943.95801-.492.6387-.738 1.5527-.738 2.7422zm17.095 0c0 1.4473-.331 2.6133-.993 3.498-.663.8848-1.559 1.3272-2.69 1.3272-1.154 0-2.062-.3662-2.724-1.0987v4.5791h-1.626V7.49023h1.485l.079 1.05469c.662-.82031 1.582-1.23047 2.76-1.23047 1.142 0 2.045.43067 2.707 1.292.668.86132 1.002 2.05955 1.002 3.59475v.1494zm-1.626-.1846c0-1.0722-.229-1.9189-.686-2.54002-.457-.6211-1.084-.93164-1.881-.93164-.984 0-1.722.43652-2.214 1.30956v4.544c.486.8671 1.23 1.3007 2.232 1.3007.779 0 1.397-.3076 1.854-.9228.463-.6211.695-1.541.695-2.7598zm6.706 2.4522l2.215-7.12797h1.74l-3.823 10.97757c-.592 1.582-1.533 2.373-2.822 2.373l-.307-.0263-.607-.1143v-1.3184l.44.0352c.551 0 .978-.1113 1.283-.334.311-.2226.565-.6299.765-1.2217l.36-.9668-3.393-9.40427h1.776l2.373 7.12797zm10.011-5.66898c-.247-.04102-.513-.06152-.8-.06152-1.067 0-1.79.4541-2.171 1.3623V17h-1.626V7.49023h1.582l.026 1.09864c.533-.84961 1.289-1.27442 2.268-1.27442.316 0 .557.04102.721.12305v1.51172zM191.079 17h-1.626V7.49023h1.626V17zm-1.758-12.03223c0-.26367.079-.48632.238-.66797.164-.18164.404-.27246.72-.27246.317 0 .557.09082.721.27246.164.18165.246.4043.246.66797 0 .26368-.082.4834-.246.65918-.164.17578-.404.26367-.721.26367-.316 0-.556-.08789-.72-.26367-.159-.17578-.238-.3955-.238-.65918zm3.982 7.19823c0-1.4824.343-2.66014 1.028-3.53319.686-.8789 1.594-1.31836 2.725-1.31836 1.16 0 2.065.41016 2.715 1.23047l.08-1.05469h1.485v9.28127c0 1.2305-.366 2.2002-1.099 2.9092-.726.7089-1.705 1.0634-2.935 1.0634-.686 0-1.357-.1464-2.013-.4394-.656-.293-1.157-.6943-1.503-1.2041l.844-.9756c.697.8613 1.55 1.292 2.558 1.292.791 0 1.406-.2227 1.845-.668.446-.4453.668-1.0722.668-1.8808v-.8174c-.65.75-1.538 1.125-2.663 1.125-1.113 0-2.016-.4483-2.707-1.3447-.685-.8965-1.028-2.1182-1.028-3.6651zm1.635.1846c0 1.0723.219 1.916.659 2.5312.439.6094 1.054.9141 1.845.9141 1.026 0 1.779-.4658 2.259-1.3975v-4.3418c-.498-.90816-1.245-1.36226-2.241-1.36226-.791 0-1.409.30761-1.855.92285-.445.61521-.667 1.52641-.667 2.73341zm10.485-3.709c.721-.88476 1.658-1.32715 2.812-1.32715 2.01 0 3.024 1.13379 3.041 3.40135V17h-1.626v-6.293c-.005-.6855-.164-1.19235-.474-1.52048-.305-.32812-.782-.49218-1.433-.49218-.527 0-.99.14062-1.389.42187-.398.28125-.708.65039-.931 1.10739V17h-1.626V3.5h1.626v5.1416zm10.494-3.4541v2.30273h1.775v1.25684h-1.775v5.89743c0 .3809.079.668.237.8614.158.1875.428.2812.809.2812.187 0 .445-.0351.773-.1055V17c-.427.1172-.843.1758-1.248.1758-.726 0-1.274-.2197-1.643-.6592s-.554-1.0635-.554-1.8721V8.74707h-1.731V7.49023h1.731V5.1875h1.626zm16.752 6.5654c0 .8965-.255 1.5821-.765 2.0567-.504.4687-1.218.7031-2.144.7031-.92 0-1.658-.3076-2.215-.9229-.551-.621-.826-1.4648-.826-2.5312v-.9668c0-1.03125.278-1.8545.835-2.46973.562-.62109 1.298-.93164 2.206-.93164.937 0 1.658.24023 2.162.7207s.756 1.15723.756 2.03028h-1.283c0-.58008-.141-.99317-.422-1.23926-.276-.25195-.68-.37793-1.213-.37793-.551 0-.985.20215-1.301.60644-.316.4043-.475.9668-.475 1.68754v.9931c0 .7032.159 1.2569.475 1.6612.316.4043.75.6064 1.301.6064.539 0 .943-.123 1.213-.3691.275-.2461.413-.6651.413-1.2569h1.283zm-8.024-1.1601c0 1.0078.234 1.9424.703 2.8037.468.8555 1.104 1.5264 1.907 2.0127.808.4863 1.682.7295 2.619.7295.938 0 1.808-.2432 2.61-.7295.803-.4863 1.439-1.1572 1.908-2.0127.468-.8613.703-1.7959.703-2.8037 0-.99612-.232-1.91897-.695-2.76858-.462-.84961-1.098-1.51758-1.907-2.00391-.803-.49219-1.676-.73828-2.619-.73828-.937 0-1.811.24317-2.619.72949-.809.48047-1.447 1.14844-1.916 2.00391-.463.85547-.694 1.78125-.694 2.77737zm-1.011 0c0-1.18362.272-2.28225.817-3.29592.551-1.01368 1.31-1.81055 2.277-2.39063.972-.58594 2.021-.87891 3.146-.87891s2.171.29297 3.138.87891c.967.58008 1.722 1.37695 2.267 2.39063.551 1.01367.826 2.1123.826 3.29592 0 1.1543-.263 2.2353-.791 3.2431-.527 1.0079-1.277 1.8194-2.25 2.4346-.966.6094-2.03.9141-3.19.9141-1.154 0-2.218-.3018-3.19-.9053-.967-.6094-1.717-1.418-2.25-2.4258-.534-1.0078-.8-2.0947-.8-3.2607zm26.367 3.0674h-5.361L243.436 17h-1.741l4.887-12.79688h1.477L252.954 17h-1.731l-1.222-3.3398zm-4.852-1.3887h4.351l-2.18-5.98537-2.171 5.98537zM260.293 17c-.094-.1875-.17-.5215-.229-1.002-.755.7852-1.658 1.1778-2.707 1.1778-.937 0-1.708-.2637-2.311-.791-.598-.5332-.897-1.2071-.897-2.0215 0-.9903.375-1.7578 1.125-2.3028.756-.5507 1.817-.8261 3.182-.8261h1.582v-.7471c0-.56835-.17-1.01953-.51-1.35351-.34-.33984-.84-.50977-1.503-.50977-.58 0-1.066.14649-1.459.43946-.392.29297-.588.64746-.588 1.06352h-1.635c0-.47466.167-.93169.501-1.37114.34-.44531.797-.79688 1.371-1.05469.58-.25781 1.216-.38672 1.907-.38672 1.096 0 1.954.27539 2.575.82617.621.54493.944 1.29786.967 2.25878v4.377c0 .873.111 1.5674.334 2.083V17h-1.705zm-2.698-1.2393c.509 0 .993-.1318 1.45-.3955.457-.2636.788-.6064.993-1.0283v-1.9512h-1.274c-1.993 0-2.989.5831-2.989 1.7491 0 .5097.17.9082.51 1.1953.34.2871.777.4306 1.31.4306zm9.589-1.1425l2.214-7.12797h1.741l-3.824 10.97757c-.591 1.582-1.532 2.373-2.821 2.373l-.307-.0263-.607-.1143v-1.3184l.44.0352c.55 0 .978-.1113 1.283-.334.31-.2226.565-.6299.764-1.2217l.361-.9668-3.393-9.40427h1.776l2.373 7.12797zm11.285 1.4414c-.633.7441-1.562 1.1162-2.786 1.1162-1.014 0-1.787-.293-2.321-.8789-.527-.5918-.794-1.4649-.8-2.6192V7.49023h1.626v6.14357c0 1.4414.586 2.1621 1.758 2.1621 1.242 0 2.069-.4629 2.479-1.3887V7.49023h1.626V17h-1.547l-.035-.9404zm9.597-1.5821c0-.4394-.167-.7793-.501-1.0195-.328-.2461-.905-.457-1.731-.6328-.82-.1758-1.474-.3867-1.96-.6328-.48-.2461-.838-.5391-1.072-.8789-.229-.3399-.343-.7442-.343-1.2129 0-.77931.328-1.43849.984-1.97755.662-.53907 1.506-.8086 2.532-.8086 1.078 0 1.951.27832 2.619.83496.674.55664 1.01 1.26856 1.01 2.13579h-1.634c0-.44536-.191-.82915-.572-1.15141-.375-.32227-.849-.4834-1.423-.4834-.592 0-1.055.12891-1.389.38672-.334.25781-.501.59473-.501 1.01079 0 .3925.155.6884.466.8876.31.1993.87.3897 1.678.5713.815.1817 1.474.3985 1.978.6504.504.252.876.5567 1.116.9141.246.3516.369.7822.369 1.292 0 .8496-.339 1.5322-1.019 2.0478-.68.5098-1.562.7647-2.646.7647-.761 0-1.435-.1348-2.021-.4043-.586-.2695-1.046-.6445-1.38-1.125-.328-.4863-.492-1.0108-.492-1.5733h1.626c.029.545.246.9786.65 1.3008.41.3164.949.4746 1.617.4746.616 0 1.108-.123 1.477-.3691.375-.252.562-.5859.562-1.002zm5.371-5.8359c.72-.88476 1.658-1.32715 2.812-1.32715 2.01 0 3.023 1.13379 3.041 3.40135V17h-1.626v-6.293c-.006-.6855-.164-1.19235-.475-1.52048-.304-.32812-.782-.49218-1.432-.49218-.528 0-.99.14062-1.389.42187-.398.28125-.709.65039-.931 1.10739V17h-1.626V3.5h1.626v5.1416zm16.259 2.4082l-1.564 1.626V17h-1.688V4.20312h1.688v6.32808l5.686-6.32808h2.039l-5.036 5.65137L316.253 17h-2.022l-4.535-5.9502zm13.439 5.0098c-.633.7441-1.562 1.1162-2.786 1.1162-1.014 0-1.787-.293-2.321-.8789-.527-.5918-.794-1.4649-.799-2.6192V7.49023h1.625v6.14357c0 1.4414.586 2.1621 1.758 2.1621 1.242 0 2.069-.4629 2.479-1.3887V7.49023h1.626V17h-1.547l-.035-.9404zm5.59-8.56937l.044 1.05469c.697-.82031 1.637-1.23047 2.821-1.23047 1.33 0 2.235.50977 2.716 1.5293.316-.45703.726-.82617 1.23-1.10742.51-.28125 1.11-.42188 1.802-.42188 2.086 0 3.146 1.1045 3.182 3.31345V17h-1.626v-6.2754c0-.6797-.156-1.18651-.466-1.5205-.311-.33984-.832-.50976-1.565-.50976-.603 0-1.104.18164-1.503.54492-.398.35742-.63.84084-.694 1.45024V17h-1.635v-6.2314c0-1.38286-.677-2.07426-2.03-2.07426-1.066 0-1.796.4541-2.189 1.36226V17h-1.625V7.49023h1.538zM348.852 17c-.094-.1875-.17-.5215-.229-1.002-.756.7852-1.658 1.1778-2.707 1.1778-.937 0-1.708-.2637-2.312-.791-.597-.5332-.896-1.2071-.896-2.0215 0-.9903.375-1.7578 1.125-2.3028.756-.5507 1.816-.8261 3.182-.8261h1.582v-.7471c0-.56835-.17-1.01953-.51-1.35351-.34-.33984-.841-.50977-1.503-.50977-.58 0-1.066.14649-1.459.43946s-.589.64746-.589 1.06352h-1.635c0-.47466.167-.93169.501-1.37114.34-.44531.797-.79688 1.371-1.05469.581-.25781 1.216-.38672 1.908-.38672 1.095 0 1.954.27539 2.575.82617.621.54493.943 1.29786.967 2.25878v4.377c0 .873.111 1.5674.334 2.083V17h-1.705zm-2.699-1.2393c.51 0 .993-.1318 1.451-.3955.457-.2636.788-.6064.993-1.0283v-1.9512h-1.275c-1.992 0-2.988.5831-2.988 1.7491 0 .5097.17.9082.51 1.1953.34.2871.776.4306 1.309.4306zm11.215-6.81148c-.246-.04102-.513-.06152-.8-.06152-1.066 0-1.79.4541-2.171 1.3623V17h-1.626V7.49023h1.583l.026 1.09864c.533-.84961 1.289-1.27442 2.267-1.27442.317 0 .557.04102.721.12305v1.51172zM371.554 17h-8.385v-1.1689l4.43-4.9219c.656-.7442 1.107-1.34768 1.353-1.81057.252-.46875.378-.95215.378-1.45019 0-.66797-.202-1.21582-.606-1.64356-.405-.42773-.944-.6416-1.618-.6416-.808 0-1.438.23145-1.889.69434-.446.45703-.668 1.0957-.668 1.91601h-1.626c0-1.17773.378-2.12988 1.134-2.85644.761-.72657 1.778-1.08985 3.049-1.08985 1.19 0 2.13.31348 2.822.94043.691.6211 1.037 1.4502 1.037 2.48731 0 1.25976-.803 2.75972-2.408 4.50002l-3.428 3.7178h6.425V17zm9.747-5.458c0 1.9043-.325 3.3193-.976 4.2451-.65.9258-1.667 1.3887-3.05 1.3887-1.365 0-2.376-.4512-3.032-1.3535-.656-.9082-.996-2.2618-1.019-4.0606V9.59082c0-1.88086.325-3.27832.975-4.19238.651-.91406 1.67-1.3711 3.059-1.3711 1.377 0 2.39.44239 3.041 1.32715.65.87891.984 2.23828 1.002 4.07813V11.542zm-1.626-2.22364c0-1.37695-.194-2.37891-.58-3.00586-.387-.63281-.999-.94922-1.837-.94922-.832 0-1.439.31348-1.82.94043-.38.62695-.577 1.59082-.588 2.8916v2.60159c0 1.3828.199 2.4052.597 3.0674.405.6562 1.014.9843 1.828.9843.803 0 1.398-.3105 1.785-.9316.392-.6211.597-1.5996.615-2.9356V9.31836zM391.769 17h-8.385v-1.1689l4.429-4.9219c.657-.7442 1.108-1.34768 1.354-1.81057.252-.46875.378-.95215.378-1.45019 0-.66797-.202-1.21582-.607-1.64356-.404-.42773-.943-.6416-1.617-.6416-.808 0-1.438.23145-1.889.69434-.446.45703-.668 1.0957-.668 1.91601h-1.626c0-1.17773.378-2.12988 1.133-2.85644.762-.72657 1.779-1.08985 3.05-1.08985 1.19 0 2.13.31348 2.822.94043.691.6211 1.037 1.4502 1.037 2.48731 0 1.25976-.803 2.75972-2.409 4.50002l-3.427 3.7178h6.425V17zm9.747-5.458c0 1.9043-.326 3.3193-.976 4.2451-.65.9258-1.667 1.3887-3.05 1.3887-1.365 0-2.376-.4512-3.032-1.3535-.656-.9082-.996-2.2618-1.02-4.0606V9.59082c0-1.88086.326-3.27832.976-4.19238.65-.91406 1.67-1.3711 3.059-1.3711 1.377 0 2.39.44239 3.041 1.32715.65.87891.984 2.23828 1.002 4.07813V11.542zm-1.626-2.22364c0-1.37695-.194-2.37891-.58-3.00586-.387-.63281-.999-.94922-1.837-.94922-.832 0-1.439.31348-1.82.94043s-.577 1.59082-.589 2.8916v2.60159c0 1.3828.2 2.4052.598 3.0674.404.6562 1.014.9843 1.828.9843.803 0 1.398-.3105 1.784-.9316.393-.6211.598-1.5996.616-2.9356V9.31836z" fill="#fff"/></svg>