<svg width="114" height="39" viewBox="0 0 114 39" fill="none" xmlns="http://www.w3.org/2000/svg"><path d="M39.8086 22h-2.2617v-7.8867h-8.6016V22h-2.25V4.9375h2.25v7.3359h8.6016V4.9375h2.2617V22zm3.082-6.457c0-1.2422.2422-2.3594.7266-3.3516.4922-.9922 1.1719-1.7578 2.039-2.29687.875-.53906 1.8711-.80859 2.9883-.80859 1.7266 0 3.1211.59765 4.1836 1.79296 1.0703 1.1953 1.6055 2.7852 1.6055 4.7695v.1524c0 1.2344-.2383 2.3437-.7148 3.3281-.4688.9766-1.1446 1.7383-2.0274 2.2852-.875.5468-1.8828.8203-3.0234.8203-1.7188 0-3.1133-.5977-4.1836-1.793-1.0625-1.1953-1.5938-2.7773-1.5938-4.7461v-.1523zm2.1797.2578c0 1.4062.3242 2.5351.9727 3.3867.6562.8516 1.5312 1.2773 2.625 1.2773 1.1015 0 1.9765-.4296 2.625-1.289.6484-.8672.9726-2.0781.9726-3.6328 0-1.3907-.332-2.5157-.9961-3.375-.6562-.8672-1.5312-1.3008-2.625-1.3008-1.0703 0-1.9336.4258-2.5898 1.2773-.6563.8516-.9844 2.0703-.9844 3.6563zm14.1211-6.48049l.0586 1.40629c.9297-1.09379 2.1836-1.64066 3.7617-1.64066 1.7735 0 2.9805.67968 3.6211 2.03906.4219-.6094.9688-1.1016 1.6406-1.47656.6797-.375 1.4805-.5625 2.4024-.5625 2.7812 0 4.1953 1.47266 4.2422 4.41796V22H72.75v-8.3672c0-.9062-.207-1.582-.6211-2.0273-.4141-.4532-1.1094-.6797-2.0859-.6797-.8047 0-1.4727.2422-2.0039.7265-.5313.4766-.8399 1.1211-.9258 1.9336V22h-2.1797v-8.3086c0-1.8437-.9024-2.7656-2.707-2.7656-1.4219 0-2.3946.6054-2.918 1.8164V22h-2.168V9.32031h2.0508zM83.4609 22.2344c-1.7187 0-3.1171-.5625-4.1953-1.6875-1.0781-1.1328-1.6172-2.6446-1.6172-4.5352v-.3984c0-1.2578.2383-2.3789.7149-3.3633.4844-.9922 1.1562-1.7656 2.0156-2.32031.8672-.5625 1.8047-.84375 2.8125-.84375 1.6484 0 2.9297.54297 3.8438 1.62886.914 1.086 1.371 2.6407 1.371 4.6641v.9023h-8.5898c.0313 1.25.3945 2.2618 1.0898 3.0352.7032.7656 1.5938 1.1484 2.6719 1.1484.7657 0 1.4141-.1562 1.9453-.4687.5313-.3125.9961-.7266 1.3946-1.2422l1.3242 1.0313c-1.0625 1.6328-2.6563 2.4492-4.7813 2.4492zm-.2695-11.3672c-.875 0-1.6094.3203-2.2031.9609-.5938.6328-.961 1.5235-1.1016 2.6719h6.3516v-.1641c-.0625-1.1015-.3594-1.9531-.8906-2.5547-.5313-.6093-1.25-.914-2.1563-.914z" fill="#fff"/></svg>