<svg width="329" height="96" viewBox="0 0 329 96" fill="none" xmlns="http://www.w3.org/2000/svg"><path d="M73.6562 7.40625l8.3672 20.88285 8.3672-20.88285h4.377V33h-3.375v-9.9668l.3164-10.7578L83.3066 33h-2.5839l-8.3848-20.6719.334 10.7051V33h-3.375V7.40625h4.3593zM106.439 28.2363l4.43-14.2558h3.481l-7.647 21.955c-1.183 3.1641-3.064 4.7461-5.642 4.7461l-.616-.0527-1.2126-.2285v-2.6367l.8786.0703c1.102 0 1.957-.2227 2.567-.668.621-.4453 1.131-1.2598 1.529-2.4433l.721-1.9336-6.7854-18.8086h3.5504l4.746 14.2558zm23.643-5.2558V33h-3.375V7.40625h9.439c2.801 0 4.993.71484 6.575 2.14453 1.593 1.42972 2.39 3.32222 2.39 5.67772 0 2.4844-.779 4.4004-2.338 5.7481-1.546 1.3359-3.767 2.0039-6.662 2.0039h-6.029zm0-2.7598h6.064c1.805 0 3.188-.4219 4.149-1.2656.961-.8555 1.441-2.086 1.441-3.6914 0-1.5235-.48-2.7422-1.441-3.6563-.961-.914-2.279-1.3886-3.955-1.4238h-6.258v10.0371zm17.719 3.0938c0-1.8633.363-3.5391 1.09-5.0274.738-1.4883 1.757-2.6367 3.058-3.4453 1.313-.8086 2.807-1.2129 4.483-1.2129 2.589 0 4.681.8965 6.275 2.6895 1.605 1.7929 2.408 4.1777 2.408 7.1543v.2285c0 1.8515-.357 3.5156-1.072 4.9922-.703 1.4648-1.717 2.6074-3.041 3.4277-1.313.8203-2.824 1.2305-4.535 1.2305-2.578 0-4.67-.8965-6.276-2.6895-1.593-1.793-2.39-4.166-2.39-7.1191v-.2285zm3.269.3867c0 2.1093.487 3.8027 1.459 5.08.985 1.2774 2.297 1.9161 3.938 1.9161 1.652 0 2.965-.6446 3.937-1.9336.973-1.3008 1.459-3.1172 1.459-5.4492 0-2.086-.498-3.7735-1.494-5.0625-.984-1.3008-2.297-1.9512-3.937-1.9512-1.606 0-2.901.6387-3.885 1.916-.985 1.2773-1.477 3.1055-1.477 5.4844zm27.317-6.8028c-.492-.082-1.026-.123-1.6-.123-2.133 0-3.58.9082-4.342 2.7246V33h-3.252V13.9805h3.164l.053 2.1972c1.067-1.6992 2.578-2.5488 4.535-2.5488.633 0 1.114.082 1.442.2461v3.0234zm8.297-7.5234v4.6055h3.55v2.5136h-3.55v11.795c0 .7617.158 1.3359.474 1.7226.317.375.856.5625 1.617.5625.375 0 .891-.0703 1.547-.2109V33c-.855.2344-1.687.3516-2.496.3516-1.453 0-2.549-.4395-3.287-1.3184s-1.107-2.127-1.107-3.7441v-11.795h-3.463v-2.5136h3.463V9.375h3.252zM195.648 33V16.4941h-3.005v-2.5136h3.005v-1.9512c0-2.03907.545-3.61524 1.635-4.72852 1.09-1.11328 2.631-1.66992 4.623-1.66992.75 0 1.494.09961 2.233.29883l-.176 2.63672c-.551-.10547-1.137-.15821-1.758-.15821-1.055 0-1.869.31055-2.443.93164-.574.60938-.862 1.48826-.862 2.63676v2.0039h4.061v2.5136H198.9V33h-3.252zm10.055-9.6855c0-1.8633.363-3.5391 1.09-5.0274.738-1.4883 1.758-2.6367 3.059-3.4453 1.312-.8086 2.806-1.2129 4.482-1.2129 2.59 0 4.682.8965 6.275 2.6895 1.606 1.7929 2.409 4.1777 2.409 7.1543v.2285c0 1.8515-.358 3.5156-1.073 4.9922-.703 1.4648-1.716 2.6074-3.041 3.4277-1.312.8203-2.824 1.2305-4.535 1.2305-2.578 0-4.67-.8965-6.275-2.6895-1.594-1.793-2.391-4.166-2.391-7.1191v-.2285zm3.27.3867c0 2.1093.486 3.8027 1.459 5.08.984 1.2774 2.297 1.9161 3.937 1.9161 1.652 0 2.965-.6446 3.938-1.9336.972-1.3008 1.459-3.1172 1.459-5.4492 0-2.086-.498-3.7735-1.495-5.0625-.984-1.3008-2.296-1.9512-3.937-1.9512-1.605 0-2.9.6387-3.885 1.916-.984 1.2773-1.476 3.1055-1.476 5.4844zM230.629 33h-3.252V6h3.252v27zm8.754 0h-3.252V13.9805h3.252V33zm-3.516-24.06445c0-.52735.158-.97266.475-1.33594.328-.36328.808-.54492 1.441-.54492s1.113.18164 1.442.54492c.328.36328.492.80859.492 1.33594 0 .52734-.164.96679-.492 1.31835-.329.3516-.809.5273-1.442.5273-.633 0-1.113-.1757-1.441-.5273-.317-.35156-.475-.79101-.475-1.31835zm7.875 14.37895c0-1.8633.363-3.5391 1.09-5.0274.738-1.4883 1.758-2.6367 3.059-3.4453 1.312-.8086 2.806-1.2129 4.482-1.2129 2.59 0 4.682.8965 6.275 2.6895 1.606 1.7929 2.409 4.1777 2.409 7.1543v.2285c0 1.8515-.358 3.5156-1.073 4.9922-.703 1.4648-1.716 2.6074-3.041 3.4277-1.312.8203-2.824 1.2305-4.535 1.2305-2.578 0-4.67-.8965-6.275-2.6895-1.594-1.793-2.391-4.166-2.391-7.1191v-.2285zm3.27.3867c0 2.1093.486 3.8027 1.459 5.08.984 1.2774 2.297 1.9161 3.937 1.9161 1.653 0 2.965-.6446 3.938-1.9336.972-1.3008 1.459-3.1172 1.459-5.4492 0-2.086-.498-3.7735-1.494-5.0625-.985-1.3008-2.297-1.9512-3.938-1.9512-1.605 0-2.9.6387-3.885 1.916-.984 1.2773-1.476 3.1055-1.476 5.4844z" fill="#000"/></svg>