<svg width="202" height="64" viewBox="0 0 202 64" fill="none" xmlns="http://www.w3.org/2000/svg"><path d="M24.0078 13.8555c0 1.6797-.2969 3.1523-.8906 4.4179-.5938 1.2657-1.4453 2.2422-2.5547 2.9297-1.1016.6875-2.3672 1.0313-3.7969 1.0313-1.414 0-2.6758-.3399-3.7851-1.0196-1.1094-.6796-1.9688-1.6484-2.5782-2.9062-.60933-1.2656-.91792-2.7188-.92574-4.3594v-.8437c0-1.6797.30078-3.15628.90234-4.42972.6094-1.28125 1.4649-2.26172 2.5664-2.9414 1.1094-.68751 2.375-1.03126 3.7969-1.03126s2.6836.34375 3.7851 1.03126c1.1094.67968 1.9649 1.66015 2.5665 2.9414.6093 1.27344.914 2.74612.914 4.41802v.7617zm-3.5625-.7735c0-1.789-.3203-3.14841-.9609-4.07809-.6406-.92969-1.5547-1.39453-2.7422-1.39453-1.1797 0-2.0899.46093-2.7305 1.38281-.6406.91406-.9648 2.25781-.9726 4.03121v.8321c0 1.7422.3203 3.0937.9609 4.0547.6406.9609 1.5625 1.4414 2.7656 1.4414 1.1797 0 2.086-.461 2.7188-1.3828.6328-.9297.9531-2.2813.9609-4.0547v-.8321zm9.0117-3.76169l.1055 1.46489c.9063-1.13286 2.1211-1.69926 3.6445-1.69926 1.3438 0 2.3438.39453 3 1.18356.6563.7891.9922 1.9688 1.0078 3.5391V22h-3.3867v-8.1094c0-.7187-.1562-1.2383-.4687-1.5586-.3125-.3281-.8321-.4922-1.5586-.4922-.9531 0-1.668.4063-2.1446 1.2188V22h-3.3867V9.32031h3.1875zM43.3672 22h-3.3984V4h3.3984v18zm6.375 0h-3.3984V9.32031h3.3984V22zM46.1445 6.03906c0-.50781.168-.92578.5039-1.2539.3438-.32813.8086-.49219 1.3946-.49219.5781 0 1.039.16406 1.3828.49219.3437.32812.5156.74609.5156 1.2539 0 .51563-.1758.9375-.5273 1.26563-.3438.32812-.8008.49219-1.3711.49219s-1.0313-.16407-1.3828-.49219c-.3438-.32813-.5157-.75-.5157-1.26563zm9.5157 3.28125l.1054 1.46489c.9063-1.13286 2.1211-1.69926 3.6446-1.69926 1.3437 0 2.3437.39453 3 1.18356.6562.7891.9921 1.9688 1.0078 3.5391V22h-3.3868v-8.1094c0-.7187-.1562-1.2383-.4687-1.5586-.3125-.3281-.832-.4922-1.5586-.4922-.9531 0-1.668.4063-2.1445 1.2188V22h-3.3867V9.32031h3.1875zM71.832 22.2344c-1.8593 0-3.375-.5703-4.5468-1.711-1.1641-1.1406-1.7461-2.6601-1.7461-4.5586v-.3281c0-1.2734.2461-2.4101.7382-3.4101.4922-1.0078 1.1875-1.7813 2.086-2.32035.9062-.54687 1.9375-.82031 3.0937-.82031 1.7344 0 3.0977.54687 4.0899 1.64066 1 1.0937 1.5 2.6445 1.5 4.6523v1.3828h-8.0742c.1093.8281.4375 1.4922.9843 1.9922.5547.5 1.2539.75 2.0977.75 1.3047 0 2.3242-.4727 3.0586-1.418l1.664 1.8633c-.5078.7188-1.1953 1.2813-2.0625 1.6875-.8671.3985-1.8281.5977-2.8828.5977zm-.3867-10.4063c-.6719 0-1.2187.2266-1.6406.6797-.4141.4531-.6797 1.1016-.7969 1.9453h4.711v-.2695c-.0157-.75-.2188-1.3281-.6094-1.7344-.3906-.414-.9453-.6211-1.6641-.6211zm18.3281-6.8906l4.3828 12.375 4.3594-12.375h4.6174V22h-3.5275v-4.6641l.3515-8.05074L95.3516 22h-2.4141L88.3438 9.29688l.3515 8.03902V22h-3.5156V4.9375h4.5937zM113.328 22c-.156-.3047-.269-.6836-.34-1.1367-.82.914-1.886 1.3711-3.199 1.3711-1.242 0-2.273-.3594-3.094-1.0782-.812-.7187-1.218-1.625-1.218-2.7187 0-1.3437.496-2.375 1.488-3.0937 1-.7188 2.441-1.0821 4.324-1.0899h1.559v-.7266c0-.5859-.153-1.0546-.457-1.4062-.297-.3516-.77-.5273-1.418-.5273-.571 0-1.02.1367-1.348.4101-.32.2734-.48.6484-.48 1.125h-3.387c0-.7344.226-1.4141.68-2.0391.453-.625 1.093-1.11324 1.921-1.4648.829-.35938 1.758-.53906 2.789-.53906 1.563 0 2.801.39453 3.715 1.18356.922.7813 1.383 1.8828 1.383 3.3047v5.4961c.008 1.2031.176 2.1133.504 2.7305V22h-3.422zm-2.801-2.3555c.5 0 .961-.1093 1.383-.3281.422-.2266.735-.5273.938-.9023v-2.1797h-1.266c-1.695 0-2.598.5859-2.707 1.7578l-.012.1992c0 .4219.149.7695.446 1.043.296.2734.703.4101 1.218.4101zm15.446-7.1484c-.461-.0625-.868-.0938-1.219-.0938-1.281 0-2.121.4336-2.52 1.3008V22h-3.386V9.32031h3.199l.094 1.51169c.679-1.16403 1.621-1.74606 2.824-1.74606.375 0 .726.05078 1.055.15234l-.047 3.25782zm6.246 4.418L131 18.1328V22h-3.387V4H131v9.9727l.656-.8438 3.246-3.80859h4.067l-4.582 5.28519L139.367 22h-3.89l-3.258-5.0859zm13.816 5.3203c-1.859 0-3.375-.5703-4.547-1.711-1.164-1.1406-1.746-2.6601-1.746-4.5586v-.3281c0-1.2734.246-2.4101.738-3.4101.493-1.0078 1.188-1.7813 2.086-2.32035.907-.54687 1.938-.82031 3.094-.82031 1.735 0 3.098.54687 4.09 1.64066 1 1.0937 1.5 2.6445 1.5 4.6523v1.3828h-8.074c.109.8281.437 1.4922.984 1.9922.555.5 1.254.75 2.098.75 1.304 0 2.324-.4727 3.058-1.418l1.664 1.8633c-.507.7188-1.195 1.2813-2.062 1.6875-.867.3985-1.828.5977-2.883.5977zm-.387-10.4063c-.671 0-1.218.2266-1.64.6797-.414.4531-.68 1.1016-.797 1.9453h4.711v-.2695c-.016-.75-.219-1.3281-.61-1.7344-.39-.414-.945-.6211-1.664-.6211zm11.59-5.62498v3.11719h2.168v2.48439h-2.168v6.3281c0 .4688.09.8047.27 1.0078.18.2032.523.3047 1.031.3047.375 0 .707-.0273.996-.082v2.5664c-.664.2031-1.347.3047-2.051.3047-2.375 0-3.586-1.1992-3.632-3.5977v-6.832H152V9.32031h1.852V6.20312h3.386zM164.867 22h-3.398V9.32031h3.398V22zM161.27 6.03906c0-.50781.168-.92578.503-1.2539.344-.32813.809-.49219 1.395-.49219.578 0 1.039.16406 1.383.49219.344.32812.515.74609.515 1.2539 0 .51563-.175.9375-.527 1.26563-.344.32812-.801.49219-1.371.49219s-1.031-.16407-1.383-.49219c-.344-.32813-.515-.75-.515-1.26563zm9.515 3.28125l.106 1.46489c.906-1.13286 2.121-1.69926 3.644-1.69926 1.344 0 2.344.39453 3 1.18356.656.7891.992 1.9688 1.008 3.5391V22h-3.387v-8.1094c0-.7187-.156-1.2383-.468-1.5586-.313-.3281-.833-.4922-1.559-.4922-.953 0-1.668.4063-2.145 1.2188V22h-3.386V9.32031h3.187zm9.844 6.24609c0-1.9453.461-3.5117 1.383-4.6992.929-1.18751 2.179-1.78126 3.75-1.78126 1.39 0 2.472.47656 3.246 1.42966l.14-1.19529h3.071V21.5781c0 1.1094-.254 2.0742-.762 2.8946-.5.8203-1.207 1.4453-2.121 1.875-.914.4296-1.984.6445-3.211.6445-.93 0-1.836-.1875-2.719-.5625-.883-.3672-1.551-.8438-2.004-1.4297l1.5-2.0625c.844.9453 1.868 1.418 3.071 1.418.898 0 1.597-.2422 2.097-.7266.5-.4766.75-1.1562.75-2.0391v-.6796c-.781.8828-1.808 1.3242-3.082 1.3242-1.523 0-2.758-.5938-3.703-1.7813-.937-1.1953-1.406-2.7773-1.406-4.7461v-.1406zm3.387.2461c0 1.1484.23 2.0508.691 2.707.461.6485 1.094.9727 1.898.9727 1.032 0 1.77-.3867 2.215-1.1602V13c-.453-.7734-1.183-1.1602-2.191-1.1602-.813 0-1.453.3321-1.922.9961-.461.6641-.691 1.6563-.691 2.9766zM19.0156 50c-.1562-.3047-.2695-.6836-.3398-1.1367-.8203.914-1.8867 1.3711-3.1992 1.3711-1.2422 0-2.2735-.3594-3.0938-1.0782-.8125-.7187-1.2187-1.625-1.2187-2.7187 0-1.3437.4961-2.375 1.4882-3.0937 1-.7188 2.4415-1.0821 4.3243-1.0899h1.5586v-.7266c0-.5859-.1524-1.0546-.4571-1.4062-.2969-.3516-.7695-.5273-1.4179-.5273-.5704 0-1.0196.1367-1.3477.4101-.3203.2734-.4805.6484-.4805 1.125h-3.3867c0-.7344.2266-1.4141.6797-2.0391.4531-.625 1.0938-1.1132 1.9219-1.4648.8281-.3594 1.7578-.5391 2.789-.5391 1.5625 0 2.8008.3946 3.7149 1.1836.9219.7813 1.3828 1.8828 1.3828 3.3047v5.4961c.0078 1.2031.1758 2.1133.5039 2.7305V50h-3.4219zm-2.8008-2.3555c.5 0 .961-.1093 1.3829-.3281.4218-.2266.7343-.5273.9375-.9023v-2.1797h-1.2657c-1.6953 0-2.5976.5859-2.707 1.7578l-.0117.1992c0 .4219.1484.7695.4453 1.043.2969.2734.7031.4101 1.2187.4101zm11.4375-10.3242l.1055 1.4649c.9063-1.1329 2.1211-1.6993 3.6445-1.6993 1.3438 0 2.3438.3946 3 1.1836.6563.7891.9922 1.9688 1.0079 3.5391V50h-3.3868v-8.1094c0-.7187-.1562-1.2383-.4687-1.5586-.3125-.3281-.832-.4922-1.5586-.4922-.9531 0-1.668.4063-2.1445 1.2188V50h-3.3868V37.3203h3.1875zm9.8086 6.2461c0-1.9766.4414-3.5508 1.3243-4.7226.8906-1.1719 2.1054-1.7579 3.6445-1.7579 1.2344 0 2.2539.461 3.0586 1.3829V32h3.3984v18h-3.0586l-.164-1.3477c-.8438 1.0547-1.9297 1.5821-3.2579 1.5821-1.4921 0-2.6914-.586-3.5976-1.7578-.8984-1.1797-1.3477-2.8164-1.3477-4.9102zm3.3868.2461c0 1.1875.207 2.0977.6211 2.7305.414.6328 1.0156.9492 1.8046.9492 1.0469 0 1.7852-.4414 2.2149-1.3242v-5.0039c-.4219-.8829-1.1524-1.3243-2.1914-1.3243-1.6328 0-2.4492 1.3243-2.4492 3.9727zM57.7109 50V32.9375h5.25c1.5 0 2.8399.3398 4.0196 1.0195 1.1875.6719 2.1133 1.6328 2.7773 2.8828.6641 1.2422.9961 2.6563.9961 4.2422v.7852c0 1.5859-.3281 2.9961-.9844 4.2305-.6484 1.2343-1.5664 2.1914-2.7539 2.8711-1.1875.6796-2.5273 1.0234-4.0195 1.0312h-5.2852zm3.5157-14.2148v11.3906h1.6992c1.375 0 2.4258-.4492 3.1523-1.3477.7266-.8984 1.0977-2.1836 1.1133-3.8554v-.9024c0-1.7344-.3594-3.0469-1.0781-3.9375-.7188-.8984-1.7695-1.3476-3.1524-1.3476h-1.7343zM80.4453 50c-.1562-.3047-.2695-.6836-.3398-1.1367-.8203.914-1.8867 1.3711-3.1993 1.3711-1.2421 0-2.2734-.3594-3.0937-1.0782-.8125-.7187-1.2187-1.625-1.2187-2.7187 0-1.3437.496-2.375 1.4882-3.0937 1-.7188 2.4414-1.0821 4.3242-1.0899h1.5586v-.7266c0-.5859-.1523-1.0546-.457-1.4062-.2969-.3516-.7695-.5273-1.418-.5273-.5703 0-1.0195.1367-1.3476.4101-.3203.2734-.4805.6484-.4805 1.125H72.875c0-.7344.2266-1.4141.6797-2.0391.4531-.625 1.0937-1.1132 1.9219-1.4648.8281-.3594 1.7578-.5391 2.789-.5391 1.5625 0 2.8008.3946 3.7149 1.1836.9218.7813 1.3828 1.8828 1.3828 3.3047v5.4961c.0078 1.2031.1758 2.1133.5039 2.7305V50h-3.4219zm-2.8008-2.3555c.5 0 .961-.1093 1.3828-.3281.4219-.2266.7344-.5273.9375-.9023v-2.1797h-1.2656c-1.6953 0-2.5976.5859-2.707 1.7578l-.0117.1992c0 .4219.1484.7695.4453 1.043.2969.2734.7031.4101 1.2187.4101zm12.375-13.4414v3.1172h2.168v2.4844h-2.168v6.3281c0 .4688.0899.8047.2696 1.0078.1797.2032.5234.3047 1.0312.3047.375 0 .707-.0273.9961-.082v2.5664c-.6641.2031-1.3476.3047-2.0508.3047-2.375 0-3.5859-1.1992-3.6328-3.5977v-6.832h-1.8516v-2.4844h1.8516v-3.1172h3.3867zM101.422 50c-.156-.3047-.27-.6836-.34-1.1367-.82.914-1.8867 1.3711-3.1992 1.3711-1.2422 0-2.2734-.3594-3.0937-1.0782-.8125-.7187-1.2188-1.625-1.2188-2.7187 0-1.3437.4961-2.375 1.4883-3.0937 1-.7188 2.4414-1.0821 4.3242-1.0899h1.5582v-.7266c0-.5859-.152-1.0546-.457-1.4062-.296-.3516-.7692-.5273-1.4176-.5273-.5703 0-1.0195.1367-1.3476.4101-.3204.2734-.4805.6484-.4805 1.125h-3.3867c0-.7344.2265-1.4141.6796-2.0391.4532-.625 1.0938-1.1132 1.9219-1.4648.8281-.3594 1.7578-.5391 2.7891-.5391 1.5628 0 2.8008.3946 3.7148 1.1836.922.7813 1.383 1.8828 1.383 3.3047v5.4961c.008 1.2031.176 2.1133.504 2.7305V50h-3.422zm-2.8009-2.3555c.5 0 .9609-.1093 1.3829-.3281.422-.2266.734-.5273.937-.9023v-2.1797h-1.2652c-1.6953 0-2.5977.5859-2.707 1.7578l-.0118.1992c0 .4219.1485.7695.4453 1.043.2969.2734.7032.4101 1.2188.4101zm18.0349-3.6562V50h-3.515V32.9375h6.656c1.281 0 2.406.2344 3.375.7031.976.4688 1.726 1.1367 2.25 2.0039.523.8594.785 1.8399.785 2.9414 0 1.6719-.574 2.9922-1.723 3.961-1.14.9609-2.722 1.4414-4.746 1.4414h-3.082zm0-2.8477h3.141c.93 0 1.637-.2187 2.121-.6562.492-.4375.738-1.0625.738-1.875 0-.836-.246-1.5117-.738-2.0274-.492-.5156-1.172-.7812-2.039-.7968h-3.223v5.3554zm18.879-.6445c-.461-.0625-.867-.0938-1.219-.0938-1.281 0-2.121.4336-2.519 1.3008V50h-3.387V37.3203h3.199l.094 1.5117c.68-1.164 1.621-1.7461 2.824-1.7461.375 0 .727.0508 1.055.1524l-.047 3.2578zM140.75 50h-3.398V37.3203h3.398V50zm-3.598-15.9609c0-.5079.168-.9258.504-1.2539.344-.3282.809-.4922 1.395-.4922.578 0 1.039.164 1.383.4922.343.3281.515.746.515 1.2539 0 .5156-.176.9375-.527 1.2656-.344.3281-.801.4922-1.371.4922-.571 0-1.031-.1641-1.383-.4922-.344-.3281-.516-.75-.516-1.2656zm11.145 11.8242l2.355-8.543h3.539L149.914 50h-3.234l-4.278-12.6797h3.539l2.356 8.543zM162.852 50c-.157-.3047-.27-.6836-.34-1.1367-.821.914-1.887 1.3711-3.2 1.3711-1.242 0-2.273-.3594-3.093-1.0782-.813-.7187-1.219-1.625-1.219-2.7187 0-1.3437.496-2.375 1.488-3.0937 1-.7188 2.442-1.0821 4.324-1.0899h1.559v-.7266c0-.5859-.152-1.0546-.457-1.4062-.297-.3516-.769-.5273-1.418-.5273-.57 0-1.019.1367-1.348.4101-.32.2734-.48.6484-.48 1.125h-3.387c0-.7344.227-1.4141.68-2.0391.453-.625 1.094-1.1132 1.922-1.4648.828-.3594 1.758-.5391 2.789-.5391 1.562 0 2.801.3946 3.715 1.1836.922.7813 1.383 1.8828 1.383 3.3047v5.4961c.007 1.2031.175 2.1133.503 2.7305V50h-3.421zm-2.801-2.3555c.5 0 .961-.1093 1.383-.3281.421-.2266.734-.5273.937-.9023v-2.1797h-1.266c-1.695 0-2.597.5859-2.707 1.7578l-.011.1992c0 .4219.148.7695.445 1.043.297.2734.703.4101 1.219.4101zm13.594-.1406c.625 0 1.132-.1719 1.523-.5156.391-.3438.594-.8008.609-1.3711h3.176c-.008.8594-.242 1.6484-.703 2.3672-.461.7109-1.094 1.2656-1.898 1.664-.797.3907-1.68.586-2.649.586-1.812 0-3.242-.5742-4.289-1.7227-1.047-1.1562-1.57-2.75-1.57-4.7812v-.2227c0-1.9531.519-3.5117 1.558-4.6758 1.039-1.164 2.465-1.7461 4.278-1.7461 1.586 0 2.855.4532 3.808 1.3594.961.8985 1.45 2.0977 1.465 3.5977h-3.176c-.015-.6563-.218-1.1875-.609-1.5938-.391-.414-.906-.6211-1.547-.6211-.789 0-1.387.2891-1.793.8672-.398.5703-.598 1.5-.598 2.7891v.3515c0 1.3047.2 2.2422.598 2.8125.399.5704 1.004.8555 1.817.8555zm11.976-2.2969l2.344-7.8867h3.633L186.5 51.9688l-.281.6679c-.758 1.6563-2.008 2.4844-3.75 2.4844-.492 0-.992-.0742-1.5-.2227V52.332l.515.0118c.641 0 1.118-.0977 1.43-.293.32-.1953.57-.5196.75-.9727l.398-1.0429-4.441-12.7149h3.645l2.355 7.8867z" fill="#fff"/></svg>