<svg width="160" height="33" viewBox="0 0 160 33" fill="none" xmlns="http://www.w3.org/2000/svg"><path d="M40.2383 15.3203V22h-2.25V4.9375h6.2929c1.8672 0 3.3282.47656 4.3829 1.42969 1.0625.95312 1.5937 2.21484 1.5937 3.78511 0 1.6563-.5195 2.9336-1.5586 3.8321-1.0312.8906-2.5117 1.3359-4.4414 1.3359h-4.0195zm0-1.8398h4.0429c1.2032 0 2.125-.2813 2.7657-.8438.6406-.5703.9609-1.3906.9609-2.4609 0-1.01564-.3203-1.82814-.9609-2.43752-.6407-.60937-1.5196-.92578-2.6367-.94922h-4.1719v6.69144zm18.6797-2.2149c-.3282-.0547-.6836-.082-1.0664-.082-1.4219 0-2.3868.6055-2.8946 1.8164v9h-2.1679V9.32031h2.1093l.0352 1.46489c.7109-1.13286 1.7187-1.69926 3.0234-1.69926.4219 0 .7422.05468.961.16406v2.0156zm1.1953 4.2774c0-1.2422.2422-2.3594.7265-3.3516.4922-.9922 1.1719-1.7578 2.0391-2.29687.875-.53906 1.8711-.80859 2.9883-.80859 1.7266 0 3.1211.59765 4.1836 1.79296 1.0703 1.1953 1.6054 2.7852 1.6054 4.7695v.1524c0 1.2344-.2382 2.3437-.7148 3.3281-.4687.9766-1.1445 1.7383-2.0273 2.2852-.875.5468-1.8829.8203-3.0235.8203-1.7187 0-3.1133-.5977-4.1836-1.793-1.0625-1.1953-1.5937-2.7773-1.5937-4.7461v-.1523zm2.1797.2578c0 1.4062.3242 2.5351.9726 3.3867.6563.8516 1.5313 1.2773 2.625 1.2773 1.1016 0 1.9766-.4296 2.625-1.289.6485-.8672.9727-2.0781.9727-3.6328 0-1.3907-.3321-2.5157-.9961-3.375-.6563-.8672-1.5313-1.3008-2.625-1.3008-1.0703 0-1.9336.4258-2.5899 1.2773-.6562.8516-.9843 2.0703-.9843 3.6563zm14.3203-6.48049V23.4648c0 2.4375-1.1055 3.6563-3.3164 3.6563-.4766 0-.918-.0703-1.3242-.2109v-1.7344c.25.0625.5781.0937.9843.0937.4844 0 .8516-.1328 1.1016-.3984.2578-.2578.3867-.7109.3867-1.3594V9.32031h2.168zm-2.3906-3.36328c0-.34375.1054-.63672.3164-.87891.2187-.24999.5351-.375.9492-.375.4219 0 .7422.1211.9609.36329.2188.24218.3281.53906.3281.89062s-.1093.64453-.3281.87891c-.2187.23437-.539.35156-.9609.35156-.4219 0-.7383-.11719-.9492-.35156-.211-.23438-.3164-.52735-.3164-.87891zM85.3789 22.2344c-1.7187 0-3.1172-.5625-4.1953-1.6875-1.0781-1.1328-1.6172-2.6446-1.6172-4.5352v-.3984c0-1.2578.2383-2.3789.7148-3.3633.4844-.9922 1.1563-1.7656 2.0157-2.32031.8672-.5625 1.8047-.84375 2.8125-.84375 1.6484 0 2.9297.54297 3.8437 1.62886.9141 1.086 1.3711 2.6407 1.3711 4.6641v.9023h-8.5898c.0312 1.25.3945 2.2618 1.0898 3.0352.7031.7656 1.5938 1.1484 2.6719 1.1484.7656 0 1.4141-.1562 1.9453-.4687.5313-.3125.9961-.7266 1.3945-1.2422l1.3243 1.0313c-1.0625 1.6328-2.6563 2.4492-4.7813 2.4492zm-.2695-11.3672c-.875 0-1.6094.3203-2.2032.9609-.5937.6328-.9609 1.5235-1.1015 2.6719h6.3515v-.1641c-.0624-1.1015-.3593-1.9531-.8906-2.5547-.5312-.6093-1.25-.914-2.1562-.914zm12.8203 9.5976c.7734 0 1.4492-.2343 2.0273-.7031.578-.4687.898-1.0547.961-1.7578h2.051c-.039.7266-.289 1.418-.75 2.0742-.461.6563-1.078 1.1797-1.852 1.5703-.7654.3907-1.5779.586-2.4373.586-1.7266 0-3.1016-.5742-4.125-1.7227-1.0156-1.1562-1.5235-2.7344-1.5235-4.7344v-.3632c0-1.2344.2266-2.3321.6797-3.293.4532-.9609 1.1016-1.707 1.9453-2.23829.8516-.53125 1.8555-.79687 3.0118-.79687 1.4218 0 2.602.42578 3.539 1.27736.945.8515 1.449 1.957 1.512 3.3164h-2.051c-.063-.8203-.375-1.4922-.9375-2.0156-.5547-.5313-1.2422-.7969-2.0625-.7969-1.1016 0-1.9571.3984-2.5664 1.1953-.6016.7891-.9024 1.9336-.9024 3.4336v.4101c0 1.461.3008 2.586.9024 3.375.6015.7891 1.4609 1.1836 2.5781 1.1836zM108.348 6.25v3.07031h2.367v1.67579h-2.367v7.8633c0 .5078.105.8906.316 1.1484.211.25.57.375 1.078.375.25 0 .594-.0469 1.031-.1406V22c-.57.1562-1.125.2344-1.664.2344-.968 0-1.699-.293-2.191-.8789-.492-.586-.738-1.418-.738-2.4961v-7.8633h-2.309V9.32031h2.309V6.25h2.168zm12.293 12.3867c0-.5859-.223-1.039-.668-1.3594-.438-.3281-1.207-.6093-2.309-.8437-1.094-.2344-1.965-.5156-2.613-.8438-.641-.3281-1.117-.7187-1.43-1.1718-.305-.4532-.457-.9922-.457-1.6172 0-1.0391.438-1.918 1.313-2.6367.882-.71879 2.007-1.07816 3.375-1.07816 1.437 0 2.601.37109 3.492 1.11326.898.7422 1.347 1.6914 1.347 2.8477h-2.179c0-.5938-.254-1.1055-.762-1.5352-.5-.4297-1.133-.6445-1.898-.6445-.79 0-1.407.1719-1.852.5156-.445.3438-.668.793-.668 1.3477 0 .5234.207.9179.621 1.1836.414.2656 1.16.5195 2.238.7617 1.086.2422 1.965.5312 2.637.8672.672.3359 1.168.7422 1.488 1.2187.329.4688.493 1.043.493 1.7227 0 1.1328-.454 2.0429-1.36 2.7304-.906.6797-2.082 1.0196-3.527 1.0196-1.016 0-1.914-.1797-2.695-.5391-.782-.3594-1.395-.8594-1.84-1.5-.438-.6484-.657-1.3476-.657-2.0976h2.168c.04.7265.329 1.3046.868 1.7343.546.4219 1.265.6328 2.156.6328.82 0 1.476-.164 1.969-.4921.5-.336.75-.7813.75-1.336z" fill="#fff"/></svg>