<svg width="254" height="63" viewBox="0 0 254 63" fill="none" xmlns="http://www.w3.org/2000/svg"><path d="M75.3086 7.78516H70.082V22h-3.5156V7.78516h-5.1562V4.9375h13.8984v2.84766zm5.0976 2.91794c.8985-1.0781 2.0274-1.61716 3.3868-1.61716 2.75 0 4.1445 1.59766 4.1836 4.79296V22h-3.3868v-8.0273c0-.7266-.1562-1.2618-.4687-1.6055-.3125-.3516-.832-.5274-1.5586-.5274-.9922 0-1.7109.3829-2.1563 1.1485V22h-3.3867V4h3.3867v6.7031zm15.961 11.5313c-1.8594 0-3.375-.5703-4.5469-1.711-1.1641-1.1406-1.7461-2.6601-1.7461-4.5586v-.3281c0-1.2734.2461-2.4101.7383-3.4101.4922-1.0078 1.1875-1.7813 2.0859-2.32035.9063-.54687 1.9375-.82031 3.0938-.82031 1.7344 0 3.0976.54687 4.0898 1.64066 1 1.0937 1.5 2.6445 1.5 4.6523v1.3828h-8.0742c.1094.8281.4375 1.4922.9844 1.9922.5547.5 1.2539.75 2.0976.75 1.3047 0 2.3243-.4727 3.0586-1.418l1.6636 1.8633c-.507.7188-1.195 1.2813-2.062 1.6875-.8672.3985-1.8281.5977-2.8828.5977zm-.3867-10.4063c-.6719 0-1.2188.2266-1.6407.6797-.414.4531-.6796 1.1016-.7968 1.9453h4.7109v-.2695c-.0156-.75-.2187-1.3281-.6094-1.7344-.3906-.414-.9453-.6211-1.664-.6211zM113.453 22h-3.515V4.9375h3.515V22zm6.164-12.67969l.106 1.46489c.906-1.13286 2.121-1.69926 3.644-1.69926 1.344 0 2.344.39453 3 1.18356.656.7891.992 1.9688 1.008 3.5391V22h-3.387v-8.1094c0-.7187-.156-1.2383-.468-1.5586-.313-.3281-.832-.4922-1.559-.4922-.953 0-1.668.4063-2.145 1.2188V22h-3.386V9.32031h3.187zm14.391-3.11719v3.11719h2.168v2.48439h-2.168v6.3281c0 .4688.09.8047.269 1.0078.18.2032.524.3047 1.032.3047.375 0 .707-.0273.996-.082v2.5664c-.664.2031-1.348.3047-2.051.3047-2.375 0-3.586-1.1992-3.633-3.5977v-6.832h-1.851V9.32031h1.851V6.20312h3.387zm9.89 16.03128c-1.859 0-3.375-.5703-4.546-1.711-1.164-1.1406-1.747-2.6601-1.747-4.5586v-.3281c0-1.2734.247-2.4101.739-3.4101.492-1.0078 1.187-1.7813 2.086-2.32035.906-.54687 1.937-.82031 3.093-.82031 1.735 0 3.098.54687 4.09 1.64066 1 1.0937 1.5 2.6445 1.5 4.6523v1.3828h-8.074c.109.8281.438 1.4922.984 1.9922.555.5 1.254.75 2.098.75 1.305 0 2.324-.4727 3.059-1.418l1.664 1.8633c-.508.7188-1.196 1.2813-2.063 1.6875-.867.3985-1.828.5977-2.883.5977zm-.386-10.4063c-.672 0-1.219.2266-1.641.6797-.414.4531-.68 1.1016-.797 1.9453h4.711v-.2695c-.015-.75-.219-1.3281-.609-1.7344-.391-.414-.946-.6211-1.664-.6211zm14.66.668c-.461-.0625-.867-.0938-1.219-.0938-1.281 0-2.121.4336-2.519 1.3008V22h-3.387V9.32031h3.199l.094 1.51169c.68-1.16403 1.621-1.74606 2.824-1.74606.375 0 .727.05078 1.055.15234l-.047 3.25782zm4.758-3.17579l.105 1.46489c.906-1.13286 2.121-1.69926 3.645-1.69926 1.343 0 2.343.39453 3 1.18356.656.7891.992 1.9688 1.008 3.5391V22h-3.387v-8.1094c0-.7187-.156-1.2383-.469-1.5586-.312-.3281-.832-.4922-1.559-.4922-.953 0-1.668.4063-2.144 1.2188V22h-3.387V9.32031h3.188zm16.172 12.91409c-1.86 0-3.375-.5703-4.547-1.711-1.164-1.1406-1.746-2.6601-1.746-4.5586v-.3281c0-1.2734.246-2.4101.738-3.4101.492-1.0078 1.187-1.7813 2.086-2.32035.906-.54687 1.937-.82031 3.094-.82031 1.734 0 3.097.54687 4.089 1.64066 1 1.0937 1.5 2.6445 1.5 4.6523v1.3828h-8.074c.11.8281.438 1.4922.985 1.9922.554.5 1.253.75 2.097.75 1.305 0 2.324-.4727 3.059-1.418l1.664 1.8633c-.508.7188-1.195 1.2813-2.063 1.6875-.867.3985-1.828.5977-2.882.5977zm-.387-10.4063c-.672 0-1.219.2266-1.641.6797-.414.4531-.679 1.1016-.797 1.9453h4.711v-.2695c-.015-.75-.218-1.3281-.609-1.7344-.391-.414-.945-.6211-1.664-.6211zm11.59-5.62498v3.11719h2.168v2.48439h-2.168v6.3281c0 .4688.09.8047.269 1.0078.18.2032.524.3047 1.031.3047.375 0 .707-.0273.997-.082v2.5664c-.664.2031-1.348.3047-2.051.3047-2.375 0-3.586-1.1992-3.633-3.5977v-6.832h-1.852V9.32031h1.852V6.20312h3.387z" fill="#fff"/></svg>