<svg width="194" height="58" viewBox="0 0 194 58" fill="none" xmlns="http://www.w3.org/2000/svg"><path d="M23.8516 4.9375v11.2383c0 1.8672-.586 3.3437-1.7578 4.4297-1.1641 1.0859-2.7579 1.6289-4.7813 1.6289-1.9922 0-3.5742-.5274-4.7461-1.5821-1.1719-1.0546-1.7695-2.5039-1.793-4.3476V4.9375h3.5157v11.2617c0 1.1172.2656 1.9336.7968 2.4492.5391.5078 1.2813.7618 2.2266.7618 1.9766 0 2.9805-1.0391 3.0117-3.1172V4.9375h3.5274zm9.5273 13.5586c0-.4141-.207-.7383-.6211-.9727-.4062-.2422-1.0625-.457-1.9687-.6445-3.0157-.6328-4.5235-1.9141-4.5235-3.8437 0-1.125.4649-2.0625 1.3946-2.8125.9375-.75786 2.1601-1.13676 3.6679-1.13676 1.6094 0 2.8946.3789 3.8555 1.13676.9687.7578 1.4531 1.7421 1.4531 2.9531H33.25c0-.4844-.1562-.8828-.4688-1.1953-.3124-.3203-.8007-.4805-1.4648-.4805-.5703 0-1.0117.1289-1.3242.3867-.3125.2578-.4688.586-.4688.9844 0 .375.1758.6797.5274.9141.3594.2265.9609.4257 1.8047.5976.8437.1641 1.5547.3516 2.1328.5625 1.789.6563 2.6836 1.793 2.6836 3.4102 0 1.1562-.4961 2.0937-1.4883 2.8125-.9922.7109-2.2734 1.0664-3.8438 1.0664-1.0625 0-2.0078-.1875-2.8359-.5625-.8203-.3828-1.4648-.9024-1.9336-1.5586-.4687-.6641-.7031-1.3789-.7031-2.1445h3.2109c.0313.6015.2539 1.0624.668 1.3828.4141.3203.9687.4804 1.6641.4804.6484 0 1.1367-.1211 1.4648-.3632.3359-.25.5039-.5743.5039-.9727zm11.3203 3.7383c-1.8594 0-3.375-.5703-4.5469-1.711-1.164-1.1406-1.7461-2.6601-1.7461-4.5586v-.3281c0-1.2734.2461-2.4101.7383-3.4101.4922-1.0078 1.1875-1.7813 2.086-2.32035.9062-.54687 1.9375-.82031 3.0937-.82031 1.7344 0 3.0977.54687 4.0899 1.64066 1 1.0937 1.5 2.6445 1.5 4.6523v1.3828h-8.0743c.1094.8281.4375 1.4922.9844 1.9922.5547.5 1.2539.75 2.0977.75 1.3047 0 2.3242-.4727 3.0586-1.418l1.664 1.8633c-.5078.7188-1.1953 1.2813-2.0625 1.6875-.8672.3985-1.8281.5977-2.8828.5977zm-.3867-10.4063c-.6719 0-1.2187.2266-1.6406.6797-.4141.4531-.6797 1.1016-.7969 1.9453h4.7109v-.2695c-.0156-.75-.2187-1.3281-.6093-1.7344-.3907-.414-.9454-.6211-1.6641-.6211zm14.6602.668c-.461-.0625-.8672-.0938-1.2188-.0938-1.2812 0-2.1211.4336-2.5195 1.3008V22h-3.3867V9.32031h3.1992l.0937 1.51169c.6797-1.16403 1.6211-1.74606 2.8242-1.74606.375 0 .7266.05078 1.0547.15234l-.0468 3.25782zm18.1054 2.1094h-6.75v4.5703H78.25V22H66.8125V4.9375h11.4141v2.84766h-7.8985v4.06644h6.75v2.7539zm7.8399-1.5l2.1328-3.78519h3.6211l-3.6094 6.21089L90.8242 22h-3.6328l-2.2617-3.9844L82.6797 22h-3.6445l3.7617-6.4688-3.5977-6.21089h3.6328l2.086 3.78519zm18.797 2.6718c0 1.9532-.445 3.5196-1.336 4.6993-.883 1.1718-2.078 1.7578-3.586 1.7578-1.2813 0-2.3164-.4453-3.1055-1.336v5.9766h-3.3867V9.32031h3.1406l.1172 1.24219c.8203-.98438 1.8906-1.47656 3.2109-1.47656 1.5625 0 2.7775.57812 3.6445 1.73436.867 1.1563 1.301 2.75 1.301 4.7813v.1757zm-3.387-.2461c0-1.1796-.211-2.0898-.6327-2.7304-.4141-.6406-1.0195-.961-1.8164-.961-1.0625 0-1.793.4063-2.1914 1.2188V18.25c.4141.8359 1.1523 1.2539 2.2148 1.2539 1.6172 0 2.4257-1.3242 2.4257-3.9727zm11.332 6.7032c-1.859 0-3.375-.5703-4.547-1.711-1.164-1.1406-1.746-2.6601-1.746-4.5586v-.3281c0-1.2734.246-2.4101.738-3.4101.493-1.0078 1.188-1.7813 2.086-2.32035.907-.54687 1.938-.82031 3.094-.82031 1.735 0 3.098.54687 4.09 1.64066 1 1.0937 1.5 2.6445 1.5 4.6523v1.3828h-8.074c.109.8281.437 1.4922.984 1.9922.555.5 1.254.75 2.098.75 1.305 0 2.324-.4727 3.058-1.418l1.664 1.8633c-.507.7188-1.195 1.2813-2.062 1.6875-.867.3985-1.828.5977-2.883.5977zm-.387-10.4063c-.671 0-1.218.2266-1.64.6797-.414.4531-.68 1.1016-.797 1.9453h4.711v-.2695c-.016-.75-.219-1.3281-.609-1.7344-.391-.414-.946-.6211-1.665-.6211zm14.661.668c-.461-.0625-.868-.0938-1.219-.0938-1.281 0-2.121.4336-2.52 1.3008V22h-3.386V9.32031h3.199l.094 1.51169c.679-1.16403 1.621-1.74606 2.824-1.74606.375 0 .726.05078 1.054.15234l-.046 3.25782zM131.148 22h-3.398V9.32031h3.398V22zm-3.597-15.96094c0-.50781.168-.92578.504-1.2539.343-.32813.808-.49219 1.394-.49219.578 0 1.039.16406 1.383.49219.344.32812.516.74609.516 1.2539 0 .51563-.176.9375-.528 1.26563-.343.32812-.8.49219-1.371.49219-.57 0-1.031-.16407-1.383-.49219-.343-.32813-.515-.75-.515-1.26563zm12.234 16.19534c-1.859 0-3.375-.5703-4.547-1.711-1.164-1.1406-1.746-2.6601-1.746-4.5586v-.3281c0-1.2734.246-2.4101.738-3.4101.493-1.0078 1.188-1.7813 2.086-2.32035.907-.54687 1.938-.82031 3.094-.82031 1.735 0 3.098.54687 4.09 1.64066 1 1.0937 1.5 2.6445 1.5 4.6523v1.3828h-8.074c.109.8281.437 1.4922.984 1.9922.555.5 1.254.75 2.098.75 1.304 0 2.324-.4727 3.058-1.418l1.664 1.8633c-.507.7188-1.195 1.2813-2.062 1.6875-.867.3985-1.828.5977-2.883.5977zm-.387-10.4063c-.671 0-1.218.2266-1.64.6797-.414.4531-.68 1.1016-.797 1.9453h4.711v-.2695c-.016-.75-.219-1.3281-.61-1.7344-.39-.414-.945-.6211-1.664-.6211zm10.653-2.50779l.105 1.46489c.906-1.13286 2.121-1.69926 3.645-1.69926 1.344 0 2.344.39453 3 1.18356.656.7891.992 1.9688 1.008 3.5391V22h-3.387v-8.1094c0-.7187-.156-1.2383-.469-1.5586-.312-.3281-.832-.4922-1.558-.4922-.954 0-1.668.4063-2.145 1.2188V22h-3.387V9.32031h3.188zM165.66 19.5039c.625 0 1.133-.1719 1.524-.5156.39-.3438.593-.8008.609-1.3711h3.176c-.008.8594-.242 1.6484-.703 2.3672-.461.7109-1.094 1.2656-1.899 1.664-.797.3907-1.679.586-2.648.586-1.813 0-3.242-.5742-4.289-1.7227-1.047-1.1562-1.571-2.75-1.571-4.7812v-.2227c0-1.9531.52-3.5117 1.559-4.6758 1.039-1.16403 2.465-1.74606 4.277-1.74606 1.586 0 2.856.45312 3.809 1.35936.961.8985 1.449 2.0977 1.465 3.5977h-3.176c-.016-.6563-.219-1.1875-.609-1.5938-.391-.414-.907-.6211-1.547-.6211-.789 0-1.387.2891-1.793.8672-.399.5703-.598 1.5-.598 2.7891v.3515c0 1.3047.199 2.2422.598 2.8125.398.5704 1.004.8555 1.816.8555zm13.078 2.7305c-1.859 0-3.375-.5703-4.547-1.711-1.164-1.1406-1.746-2.6601-1.746-4.5586v-.3281c0-1.2734.246-2.4101.739-3.4101.492-1.0078 1.187-1.7813 2.086-2.32035.906-.54687 1.937-.82031 3.093-.82031 1.735 0 3.098.54687 4.09 1.64066 1 1.0937 1.5 2.6445 1.5 4.6523v1.3828h-8.074c.109.8281.437 1.4922.984 1.9922.555.5 1.254.75 2.098.75 1.305 0 2.324-.4727 3.059-1.418l1.664 1.8633c-.508.7188-1.196 1.2813-2.063 1.6875-.867.3985-1.828.5977-2.883.5977zm-.386-10.4063c-.672 0-1.219.2266-1.641.6797-.414.4531-.68 1.1016-.797 1.9453h4.711v-.2695c-.016-.75-.219-1.3281-.609-1.7344-.391-.414-.946-.6211-1.664-.6211zM7.05859 43.0625c0-1.7891.23829-3.4922.71485-5.1094s1.17968-3.0469 2.10937-4.289c.92969-1.25 1.93749-2.1172 3.02339-2.6016l.6563 1.8281c-1.1406.8438-2.0313 2.1485-2.6719 3.9141-.6406 1.7656-.96091 3.8281-.96091 6.1875v.3633c0 2.3672.31641 4.4375.94921 6.2109.6328 1.7734 1.5273 3.0977 2.6836 3.9727l-.6563 1.7929c-1.0624-.4765-2.0546-1.3203-2.97651-2.5312-.91407-1.2031-1.61328-2.5938-2.09766-4.1719-.48437-1.5781-.74219-3.2266-.77344-4.9453v-.6211zm21.90231 1.2539c-.1328 1.8359-.8125 3.2813-2.039 4.3359-1.2188 1.0547-2.8281 1.5821-4.8281 1.5821-2.1876 0-3.9102-.7344-5.168-2.2032-1.25-1.4765-1.875-3.5-1.875-6.0703V40.918c0-1.6407.289-3.086.8672-4.336.5781-1.25 1.4023-2.207 2.4726-2.8711 1.0782-.6718 2.3282-1.0078 3.75-1.0078 1.9688 0 3.5547.5274 4.7578 1.5821 1.2032 1.0546 1.8985 2.5351 2.086 4.4414h-3.5156c-.086-1.1016-.3946-1.8985-.9258-2.3907-.5235-.5-1.3242-.75-2.4024-.75-1.1718 0-2.0508.4219-2.6367 1.2657-.5781.8359-.875 2.1367-.8906 3.9023v1.2891c0 1.8437.2773 3.1914.832 4.0429.5625.8516 1.4453 1.2774 2.6485 1.2774 1.0859 0 1.8945-.2461 2.4257-.7383.5391-.5.8477-1.2695.9258-2.3086h3.5156zm1.5586-.7734c0-1.2578.2422-2.3789.7266-3.3633.4844-.9844 1.1797-1.7461 2.0859-2.2852.9141-.539 1.9727-.8086 3.1758-.8086 1.711 0 3.1055.5235 4.1836 1.5703 1.0859 1.0469 1.6914 2.4688 1.8164 4.2657l.0234.8672c0 1.9453-.5429 3.5078-1.6289 4.6875-1.0859 1.1718-2.5429 1.7578-4.3711 1.7578-1.8281 0-3.289-.586-4.3828-1.7578-1.0859-1.1719-1.6289-2.7657-1.6289-4.7813v-.1523zm3.3867.2461c0 1.2031.2266 2.125.6797 2.7656.4532.6328 1.1016.9492 1.9453.9492.8204 0 1.461-.3125 1.9219-.9375.461-.6328.6914-1.6406.6914-3.0234 0-1.1797-.2304-2.0938-.6914-2.7422-.4609-.6485-1.1093-.9727-1.9453-.9727-.8281 0-1.4687.3242-1.9219.9727-.4531.6406-.6797 1.6367-.6797 2.9883zm13.8868-6.4688l.1054 1.418c.8985-1.1016 2.1133-1.6524 3.6446-1.6524 1.6328 0 2.7539.6446 3.3632 1.9336.8907-1.289 2.1602-1.9336 3.8086-1.9336 1.375 0 2.3985.4024 3.0704 1.2071.6718.7968 1.0078 2 1.0078 3.6093V50h-3.3985v-8.0859c0-.7188-.1406-1.2422-.4218-1.5703-.2813-.336-.7774-.504-1.4883-.504-1.0156 0-1.7188.4844-2.1094 1.4532L55.3867 50H52v-8.0742c0-.7344-.1445-1.2656-.4336-1.5938-.2891-.3281-.7812-.4922-1.4766-.4922-.9609 0-1.6562.3985-2.0859 1.1954V50h-3.3867V37.3203h3.1758zM68.9805 50H65.582V37.3203h3.3985V50zm-3.5977-15.9609c0-.5079.168-.9258.5039-1.2539.3438-.3282.8086-.4922 1.3945-.4922.5782 0 1.0391.164 1.3829.4922.3437.3281.5156.746.5156 1.2539 0 .5156-.1758.9375-.5274 1.2656-.3437.3281-.8007.4922-1.3711.4922-.5703 0-1.0312-.1641-1.3828-.4922-.3437-.3281-.5156-.75-.5156-1.2656zm9.5156 3.2812l.1055 1.4649c.9063-1.1329 2.1211-1.6993 3.6445-1.6993 1.3438 0 2.3438.3946 3 1.1836.6563.7891.9922 1.9688 1.0078 3.5391V50h-3.3867v-8.1094c0-.7187-.1562-1.2383-.4687-1.5586-.3125-.3281-.832-.4922-1.5586-.4922-.9531 0-1.668.4063-2.1445 1.2188V50h-3.3868V37.3203h3.1875zm9.8438 6.2461c0-1.9453.4609-3.5117 1.3828-4.6992.9297-1.1875 2.1797-1.7813 3.75-1.7813 1.3906 0 2.4727.4766 3.2461 1.4297l.1406-1.1953h3.0703v12.2578c0 1.1094-.2539 2.0742-.7617 2.8946-.5.8203-1.207 1.4453-2.1211 1.875-.914.4296-1.9844.6445-3.2109.6445-.9297 0-1.836-.1875-2.7188-.5625-.8828-.3672-1.5507-.8438-2.0039-1.4297l1.5-2.0625c.8438.9453 1.8672 1.418 3.0703 1.418.8985 0 1.5977-.2422 2.0977-.7266.5-.4766.75-1.1562.75-2.0391v-.6796c-.7813.8828-1.8086 1.3242-3.082 1.3242-1.5235 0-2.7578-.5938-3.7032-1.7813-.9375-1.1953-1.4062-2.7773-1.4062-4.7461v-.1406zm3.3867.2461c0 1.1484.2305 2.0508.6914 2.707.4609.6485 1.0938.9727 1.8985.9727 1.0312 0 1.7695-.3867 2.2148-1.1602V41c-.4531-.7734-1.1836-1.1602-2.1914-1.1602-.8125 0-1.4531.3321-1.9219.9961-.4609.6641-.6914 1.6563-.6914 2.9766zm25.8631 1.7109c0-.664-.234-1.1718-.703-1.5234-.469-.3594-1.312-.7344-2.531-1.125-1.219-.3984-2.184-.7891-2.895-1.1719-1.937-1.0469-2.906-2.457-2.906-4.2304 0-.9219.258-1.7422.773-2.461.524-.7265 1.27-1.2929 2.239-1.6992.976-.4063 2.07-.6094 3.281-.6094 1.219 0 2.305.2227 3.258.668.953.4375 1.691 1.0586 2.215 1.8633.531.8047.797 1.7187.797 2.7422h-3.516c0-.7813-.246-1.3868-.738-1.8164-.493-.4375-1.184-.6563-2.075-.6563-.859 0-1.527.1836-2.003.5508-.477.3594-.715.8359-.715 1.4297 0 .5547.277 1.0195.832 1.3945.562.375 1.386.7266 2.472 1.0547 2 .6016 3.457 1.3476 4.371 2.2383.914.8906 1.372 2 1.372 3.3281 0 1.4766-.559 2.6367-1.676 3.4805-1.117.8359-2.621 1.2539-4.512 1.2539-1.312 0-2.508-.2383-3.586-.7149-1.078-.4843-1.902-1.1445-2.473-1.9804-.562-.836-.843-1.8047-.843-2.9063h3.527c0 1.8828 1.125 2.8242 3.375 2.8242.836 0 1.488-.1679 1.957-.5039.469-.3437.703-.8203.703-1.4297zm5.168-1.9804c0-1.2578.242-2.3789.727-3.3633.484-.9844 1.179-1.7461 2.086-2.2852.914-.539 1.972-.8086 3.175-.8086 1.711 0 3.106.5235 4.184 1.5703 1.086 1.0469 1.691 2.4688 1.816 4.2657l.024.8672c0 1.9453-.543 3.5078-1.629 4.6875-1.086 1.1718-2.543 1.7578-4.371 1.7578-1.828 0-3.289-.586-4.383-1.7578-1.086-1.1719-1.629-2.7657-1.629-4.7813v-.1523zm3.387.2461c0 1.2031.226 2.125.68 2.7656.453.6328 1.101.9492 1.945.9492.82 0 1.461-.3125 1.922-.9375.461-.6328.691-1.6406.691-3.0234 0-1.1797-.23-2.0938-.691-2.7422-.461-.6485-1.11-.9727-1.946-.9727-.828 0-1.468.3242-1.921.9727-.454.6406-.68 1.6367-.68 2.9883zm10.183-.2461c0-1.2578.243-2.3789.727-3.3633.484-.9844 1.18-1.7461 2.086-2.2852.914-.539 1.973-.8086 3.176-.8086 1.711 0 3.105.5235 4.183 1.5703 1.086 1.0469 1.692 2.4688 1.817 4.2657l.023.8672c0 1.9453-.543 3.5078-1.629 4.6875-1.086 1.1718-2.543 1.7578-4.371 1.7578-1.828 0-3.289-.586-4.383-1.7578-1.086-1.1719-1.629-2.7657-1.629-4.7813v-.1523zm3.387.2461c0 1.2031.227 2.125.68 2.7656.453.6328 1.101.9492 1.945.9492.82 0 1.461-.3125 1.922-.9375.461-.6328.691-1.6406.691-3.0234 0-1.1797-.23-2.0938-.691-2.7422-.461-.6485-1.109-.9727-1.945-.9727-.828 0-1.469.3242-1.922.9727-.453.6406-.68 1.6367-.68 2.9883zm13.828-6.4688l.106 1.4649c.906-1.1329 2.121-1.6993 3.644-1.6993 1.344 0 2.344.3946 3 1.1836.657.7891.993 1.9688 1.008 3.5391V50h-3.387v-8.1094c0-.7187-.156-1.2383-.468-1.5586-.313-.3281-.832-.4922-1.559-.4922-.953 0-1.668.4063-2.144 1.2188V50h-3.387V37.3203h3.187zm10.512 11.0156c0-.539.18-.9765.539-1.3125.367-.3359.824-.5039 1.371-.5039.555 0 1.012.168 1.371.5039.367.336.551.7735.551 1.3125 0 .5313-.18.9649-.539 1.3008-.359.3281-.82.4922-1.383.4922-.555 0-1.012-.1641-1.371-.4922-.359-.3359-.539-.7695-.539-1.3008zm6.984 0c0-.539.18-.9765.539-1.3125.368-.3359.825-.5039 1.372-.5039.554 0 1.011.168 1.371.5039.367.336.55.7735.55 1.3125 0 .5313-.179.9649-.539 1.3008-.359.3281-.82.4922-1.382.4922-.555 0-1.012-.1641-1.372-.4922-.359-.3359-.539-.7695-.539-1.3008zm6.985 0c0-.539.179-.9765.539-1.3125.367-.3359.824-.5039 1.371-.5039.555 0 1.012.168 1.371.5039.367.336.551.7735.551 1.3125 0 .5313-.18.9649-.539 1.3008-.36.3281-.821.4922-1.383.4922-.555 0-1.012-.1641-1.371-.4922-.36-.3359-.539-.7695-.539-1.3008zm12.644-5.0039c0 1.7657-.254 3.4649-.761 5.0977-.508 1.6328-1.239 3.0742-2.192 4.3242-.953 1.25-1.972 2.1094-3.058 2.5781l-.657-1.7929c1.11-.836 1.985-2.125 2.625-3.8672.641-1.7422.973-3.7461.996-6.0117v-.6211c0-2.336-.32-4.3946-.961-6.1758-.632-1.7813-1.519-3.1172-2.66-4.0078l.657-1.793c1.062.4609 2.062 1.2969 3 2.5078.945 1.2109 1.675 2.6211 2.191 4.2305.523 1.6094.797 3.2773.82 5.0039v.5273z" fill="#fff"/></svg>